<svg version="1.1" id="macmillan" class="svg--macmillan" xmlns="http://www.w3.org/2000/svg" xmlns:xlink="http://www.w3.org/1999/xlink" x="0px" y="0px"
	 viewBox="0 0 360 128" width="360" height="128" enable-background="new 0 0 360 128" xml:space="preserve">
<path fill="#009B3E" d="M36.47,116.241c-0.353,0.292,0,0.524,0.231,0.524c-0.695,0,0.64,1.456-0.231,3.613
	c-0.938,2.223-3.734,2.979-6.531,2.979c-7.645,0-12.892-4.082-12.892-12.251c0-4.899,2.566-9.918,8.285-11.667
	c4.193-1.285,8.225-0.529,9.621,0.816c1.517,1.461,1.517,4.667-0.64,5.08c-5.891,0-8.98,0.987-8.98,5.946
	C25.333,118.282,33.849,115.777,36.47,116.241z M44.926,99.903c0.414-0.636,0.816-0.636,1.23-0.636
	c1.633,0.111,5.191,0.172,6.007,0.349c0.353,0.055,1.048,0.115,1.28,0.811c0.293,0.646,6.012,17.629,6.239,18.264
	c0.242,0.585,0.524,1.049,0.706,1.164c0.061,0.177-0.408-0.287-0.353,0c0.061,0.353,0.584,0.701,0.701,0.877
	c0.116,0.177-0.227-0.176-0.348,0c-0.353,0.227,0.231,1.396,0.584,1.749c-0.292,0.756-3.679,1.804-5.664,1.225
	c-1.865-0.58-2.097-2.797-3.029-5.423h-5.72l-0.756,2.797c-0.645,2.046-2.51,2.454-4.374,2.454c-2.278,0-3.392-1.521-3.095-4.435
	C38.566,116.009,43.001,102.881,44.926,99.903z M47.205,112.683l4.203-0.121l-1.936-7.872L47.205,112.683z M66.869,99.616
	c1.331,0,3.195,0.579,4.364,2.686c0.816,1.391,5.196,9.505,6.597,9.505c0.872,0,0.641-5.362,0.641-9.747
	c0-2.443,1.058-3.784,4.263-3.784c3.024,0,3.901,0.992,3.901,2.333v2.913c-0.111,13.067-2.561,18.556-6.007,18.556
	c-3.558,0-6.884-2.802-10.966-8.93v6.884c0,2.802-1.925,2.862-3.034,2.862c-1.693,0-4.375-0.242-4.375-4.203
	c0-3.674-0.171-14.584,0.816-16.974c0.121-0.297,0.353,0.408,0.464,0.111c0.121-0.282,0.413,0.121,0.413,0
	C64.117,100.9,65.166,99.616,66.869,99.616z M100.866,117.168c3.972,0,5.604,1.169,5.604,2.57c0,2.686-1.865,3.85-4.556,3.85
	c-7.398,0-13.294-4.021-13.294-12.246c0-2.338,1.23-7.993,5.897-10.502c3.911-2.102,8.043-1.81,9.212-1.81
	c1.865,0,2.45,0.812,2.45,1.81c0,1.4-0.584,3.85-4.606,3.85c-3.387,0-4.959,0.988-4.959,8.572
	C96.613,117.409,98.246,117.168,100.866,117.168z M122.052,99.731c1.099,0,2.681,0,2.681,1.754c0,1.744-0.181,3.497-4.435,3.497
	h-4.203c-1.633,0-1.512,0.524-1.461,4.083h4.031c0.646,0,4.254,0,4.254,2.096c0,1.109,0,3.508-2.792,3.508h-5.493v3.387h3.679
	c3.971,0,5.775,1.103,5.775,2.736c0,2.505-4.607,3.029-7.066,3.029c-4.364,0-9.152-1.22-9.152-3.729
	c0-1.518-0.292-20.36,2.682-20.36H122.052z M146.031,121.2c0,1.401-1.522,2.333-3.447,2.333c-2.046,0-2.338-0.297-2.802-2.686
	c-0.413-1.865-2.449-4.259-3.215-4.259c-2.681-0.529-2.329-1.28-2.56-1.335c-0.232-0.182-0.171,0.343-0.171,0.579
	c-0.242-0.64-0.705-0.64-0.705-0.176c-0.232-0.641-0.474-0.701-0.524-0.585c-0.05,0.182-0.353-0.403-0.413-0.7
	c-0.061-0.228-0.292,0.584-0.292,1.164v5.664c0,2.218-1.452,2.621-2.51,2.621c-2.792,0-2.792-2.274-2.792-4.082v-6.764
	c0-7.993,1.169-14.821,10.734-14.353c0.11,0-0.474-0.237-0.232-0.237c0.282,0,1.986,0.354,1.865,0.293
	c-1.865-0.928-4.435-0.403-4.324-0.403c6.249-1.225,11.39,2.389,11.39,7.523c0,3.438-2.57,6.244-5.141,6.592
	C143.571,114.547,146.031,117.642,146.031,121.2z M133.482,108.188c1.925,0,1.633,1.521,3.669,1.521
	c0.998,0,2.218-1.169,2.218-2.687c0-1.688-1.401-2.564-3.024-2.564c-3.85,0-4.556,4.374-4.213,4.082
	C132.374,108.364,133.069,108.188,133.482,108.188z M166.38,97.69c3.266,0,5.483,2.041,5.483,5.015c0,1.456-0.585,2.449-1.28,2.449
	c-2.167,0-6.42-1.401-6.42,0.474c0,2.676,8.235,5.19,8.235,11.313c0,4.606-2.862,7.928-7.711,7.928
	c-5.543,0-8.285-2.857-7.579-3.911c0.343-0.519,1.743-2.268,0.927-3.315c0.534,0.519,0.938-0.061,0.816-0.353
	c0.363-0.061,0.767-0.349,0.474-1.049c0.171-0.121,2.268,2.157,4.314,2.157c1.159,0,1.633-0.585,1.633-1.457
	c0-2.857-8.346-4.258-8.346-11.435C156.926,101.419,160.605,97.69,166.38,97.69z M190.59,100.78c0.111-1.513,1.159-1.87,2.097-2.102
	c0.998-0.293,2.983-0.111,3.497,1.164c0.645,1.577,0.645,5.372,0.645,9.394c0,7.933-1.28,13.828-10.503,13.828
	c-4.082,0-8.103-1.053-10.502-5.774c-1.864-4.083-1.683-13.355-1.391-16.803c0.11-1.22,0.463-1.809,1.391-2.102
	c0.877-0.231,5.554-0.635,5.604,2.278c0.061,1.749-0.402,7.116,0.645,11.026c0.767,2.797,2.51,4.672,5.02,4.672
	C191.226,116.362,190.53,101.364,190.59,100.78z M206.395,97.16c8.638,0,12.074,3.851,12.074,7.641
	c0,7.357-5.009,10.623-11.49,10.623c-0.523,0-0.584,0.408-0.584,0.695v2.742c0,1.517-0.524,3.618-3.377,3.618
	c-2.57,0-2.923-1.401-2.923-3.618v-2.974C200.508,103.108,199.108,97.16,206.395,97.16z M206.395,109.296
	c4.313,0,6.188-0.933,6.188-4.021c0-2.621-3.508-2.621-6.188-2.621V109.296z M219.357,115.657c0-12.196,5.412-16.687,12.892-16.687
	c4.656,0,8.506,2.979,8.506,7.761c0,3.795-2.156,6.939-6.763,6.939c-2.57,0-5.312-1.108-5.312-2.853
	c0-1.048,0.877-2.046,2.106-2.277c2.389-0.464,3.558-0.177,3.558-1.985c0-1.049-2.096-3.15-6.007,0.756
	c-0.242-0.061,2.328-2.157,2.097-2.157c-0.233-0.056-1.462,0.816-1.572,0.816c-0.071,0,0.645-0.58,0.292-0.58
	c-0.292,0-2.691,1.457-2.691,8.633v6.244c0,3.211-1.391,3.211-3.034,3.211c-3.558,0-4.071-2.339-4.071-3.624V115.657z
	 M252.659,97.221c7.408,0,9.907,7.353,9.907,13.939c0,8.175-6.118,11.964-11.248,11.964c-7.7,0-9.676-7.236-9.676-13.012
	C241.642,100.78,245.432,97.221,252.659,97.221z M247.054,109.941c0,1.805,0.353,6.885,4.788,6.885c3.668,0,4.838-3.503,4.838-6.068
	c0-3.789-0.585-8.053-4.485-8.053C248.637,102.825,247.054,105.154,247.054,109.941z M285.154,105.39
	c0,7.585-7.177,6.477-7.64,6.537c1.683,1.915,4.605,6.179,7.64,8.688c1.159,0.988-0.121,4.203-5.836,2.218
	c-3.034-1.048-7.177-9.686-7.348-10.442v9.798c0,0.937-0.877,1.517-2.107,1.517c-3.095,0-5.533-3.438-5.533-9.741
	c0-3.438,0.11-8.865,1.864-11.431c1.864-2.741,5.886-3.91,10.442-3.794C282.352,98.909,285.154,101.716,285.154,105.39z
	 M271.91,107.083c0.353,0.056,6.531,1.578,6.531-1.405c0-2.742-6.531-1.865-6.531,0.992V107.083z M300.323,105.739
	c0.695,1.693,0.695,16.449-0.413,16.217c-0.121,0.292-0.877,0.469-0.877,0.756c-0.171-0.403-0.403-0.11-0.575,0.121
	c0.051-0.292-0.887,0.061-0.997,0.403c-0.121-0.172-0.706,0-0.706,0.121c-0.171-0.353-1.219-0.464-1.562-0.232
	c0.051-0.171-0.362-0.292-0.594-0.12c0.061-0.232-0.414-0.403-0.646-0.403c0-0.232-0.464-0.701-0.464-1.114v-4.485
	c0-3.854,0.756-7.816,0.756-10.679c0-0.116,0-0.584-0.574-0.584h-0.938c-2.217,0-6.531,0-6.531-3.034
	c0-0.524,0.111-2.862,0.464-3.149c1.754-1.28,13.476-1.049,13.597-1.049c1.865,0,5.251-0.231,6.995,1.049
	c0.352,0.287,0.464,2.625,0.464,3.149c0,3.034-4.254,3.034-6.471,3.034H300.323z M346.465,76.997c0,2.902,0,9.232-1.985,11.476
	c-1.966,2.242-8.437,0.267-10.543-1.719c-2.107-1.98-1.452-6.723-1.452-10.553c0-3.825,6.33-2.505,8.175-2.505
	C342.514,73.697,346.465,74.094,346.465,76.997z M115.874,80.494c-5.1,0-8.617-2.872-8.617-7.498c0-5.423,3.83-6.864,8.94-6.864
	c6.854,0,10.371-0.474,10.371-3.982c0-4.631-4.959-9.585-14.051-9.585c-9.565,0-16.913,8.144-16.913,18.354
	c0,15.961,10.21,20.582,18.666,20.582c7.025,0,13.254-3.023,13.254-9.092c0-0.957-0.323-2.076-0.806-2.393
	c-0.948-0.801-2.228-0.64-4.143-0.317C120.662,80.016,119.22,80.494,115.874,80.494L115.874,80.494z M31.31,43.04
	c6.682,0,8.91-7.499,9.782-12.775c0.277-0.867,0.549-3.644,1.088-3.644c1.083,0,3.049,17.78,8.371,17.78
	c15.542,0,15.542-26.689,15.542-32.233c0-5.272-2.49-6.96-5.266-6.96c-3.372,0-6.687,1.416-6.687,5.871
	c0,7.227-0.545,19.458-1.684,19.458c-1.36,0-0.816-21.413-8.859-21.413c-5.327,0-6.96,6.682-8.371,13.314
	c-0.544,2.228-0.821,5.876-1.96,5.876c-2.228,0-1.628-14.191-1.628-17.83c0-1.36-0.6-3.86-4.46-3.86h-3.644
	c-2.222,0-3.044,0.816-3.044,5.272v9.187C20.49,38.313,26.905,43.04,31.31,43.04L31.31,43.04z M82.512,29.398
	c8.87,0,8.87-3.316,8.87-6.093c0-2.222-1.36-3.094-5.009-3.094c-2.228,0-4.727,0.328-6.088,0.6v-2.505c0-2.227,0.272-2.5,1.683-2.5
	h3.588c5.271,0,7.499-3.094,7.499-6.143c0-2.767-6.954-3.583-15.592-3.583c-3.588,0-4.949,0.544-5.816,1.844
	c-1.96,2.721-3.315,12.287-3.315,30.661c0,1.411,4.183,5.271,16.419,5.271c3.578,0,9.444-1.36,9.444-5.543
	c0-3.911-8.093-6.143-13.637-4.193v-4.722H82.512z M152.844,22.711c1.149-4.999,2.782-9.131,5.826-9.131
	c2.227,0,3.094,1.36,3.094,2.5C161.764,19.667,156.765,21.622,152.844,22.711L152.844,22.711z M145.89,9.941
	c-7.227,8.365-5.543,25.057-4.989,29.784c0.534,1.905,1.945,3.588,6.411,3.588c3.306,0,4.444-0.272,4.444-1.411
	c0-0.816,0.282-1.089,0.282-9.731c3.588,4.188,10.543,10.598,15.371,10.598c1.532,0,4.354-4.727,4.354-7.227
	c0-1.956-3.911-5.277-9.183-9.192c5.876-2.988,8.043-6.411,8.043-10.543c0-5.322-4.404-10.87-12.508-10.87
	C152.844,4.936,148.934,6.624,145.89,9.941L145.89,9.941z M185.411,28.859c8.315,0,10.815-1.088,10.815-6.803
	c0-1.245-0.766-1.845-10.815-1.845v-4.405c9.898-0.05,13.858-0.867,13.858-4.183c0-3.916-1.633-6.138-9.454-6.138
	c-5.554,0-13.859,0.867-14.142,1.683c-0.595,1.411-1.955,9.187-1.955,16.691c0,12.77,3.044,20.269,16.701,20.269
	c6.944,0,8.85-1.361,8.85-5c0-4.132,0-4.455-1.079-4.455C188.182,34.675,185.411,34.12,185.411,28.859L185.411,28.859z
	 M121.972,14.94c0.544,2.227,1.693,8.92,1.956,10.331h-4.173C120.016,24.394,121.438,17.712,121.972,14.94L121.972,14.94z
	 M110.884,42.768c4.728,0,6.643-5.271,7.781-10.271h6.36c1.683,4.999,2.55,10.815,7.549,10.815c2.5,0,4.999-1.411,4.999-5
	c0-6.143-3.094-21.64-6.138-30.605c-0.544-1.083-1.36-1.356-2.227-1.356c-2.772-0.272-11.964-0.595-15.008,0.272
	c-1.089,0.544-1.411,0.544-1.955,1.633c-2.51,6.139-4.999,18.919-5.544,27.557c-0.272,4.999,0,6.955,3.316,6.955H110.884z
	 M239.334,80.001c-2.237,0-3.044-0.272-3.044-4.133l-0.271-20.33c0-1.356-0.061-2.278-1.684-2.439
	c-2.127-0.216-9.132-0.216-9.726,0.162c-0.504,0.327-0.555,1.194-0.555,1.194c0,2.776-0.594,15.275-0.594,21.957
	c0.332,7.51,0.332,10.004,1.955,11.688c2.771,2.776,16.419,2.776,20.329,2.776c0.545,0,1.361,0,1.956-1.683
	c0.544-0.545,0.544-1.361,1.088-1.361c-0.544,0-0.271-1.955,0-1.955c-0.271,0-0.271-1.422-0.271-1.422
	c-0.545-0.271,1.088-4.454-4.728-4.454H239.334z M300.535,76.695c5.554,7.761,10.28,11.405,16.58,11.405
	c4.082,0,8.698-4.994,8.698-19.781c0-16.086-2.5-17.779-6.965-17.779c-4.717,0-7.227,2.232-7.227,6.692
	c0,6.088,0.271,11.682-0.262,13.315c-0.816-0.545-3.055-3.321-8.054-12.237c-2.772-5.271-6.683-5.539-8.043-5.539
	c-8.315,0-7.832,21.691-7.832,26.957c0,7.176,2.278,9.676,6.411,9.676c3.014,0,4.626-0.393,5.594-0.756
	c0.978-0.363,0.927-0.579,0.927-1.759L300.535,76.695z M178.99,82.234c0-5.271,0.554-15.819,0-26.413
	c0-0.827,1.099-3.326,6.421-3.326c3.043,0,5.543,0.544,5.543,2.499c1.693,13.652,1.693,32.511,1.089,33.383
	c-0.273,1.36-1.089,1.088-1.089,1.627c-0.262-0.267-1.411,0.6-1.411,0.872c-0.273-0.272-1.089,0-0.817,0
	c-0.544-0.272-2.499,0-3.044,0.272c0,0-0.867-0.272-1.421,0c0-0.545-1.673-1.145-1.673-0.545c-0.273-0.6-0.816-0.866-1.089-0.271
	C181.5,90.004,178.99,89.194,178.99,82.234L178.99,82.234z M35.492,55.821c-1.955-3.326-4.999-5.009-8.315-5.009
	c-9.726,0-13.643,14.735-13.643,26.417c0,8.376,1.144,12.236,3.644,12.236c6.088,0,7.499,0,7.771-0.271
	c3.316-0.816,0-21.968,4.455-21.968c1.088,0,1.905,2.776,2.232,5.82c0.811,4.733,2.494,9.188,6.632,9.188
	c4.399,0,4.732-1.084,5.327-5.821c0.811-5.865,1.36-10.865,2.771-10.865c1.956,0,2.767,9.454,2.767,11.415
	c0.55,6.683,0.55,12.503,3.594,12.503c5.321,0,6.954-3.86,7.549-7.232c0.816-8.044-0.595-18.047-2.227-22.779
	C55.822,53.039,51.912,50,46.912,50C41.903,50,37.992,53.039,35.492,55.821L35.492,55.821z M207.1,54.994
	c-0.544-1.955-1.139-2.223-2.499-2.762c-2.51-0.554-6.965-0.272-7.559,1.623c-1.633,2.504-0.988,30.228-0.655,33.321
	c0.11,1.85-0.161,2.561,11.803,2.561c8.638,0,12.498-1.905,13.365-6.36c1.089-5.599-0.595-6.148-3.095-6.148h-9.726
	C208.733,73.368,207.856,57.771,207.1,54.994L207.1,54.994z M79.685,61.959c0.983,0,2.283,4.455,2.555,9.182h-5.594
	c0-1.41,1.466-7.227,2.278-9.021C78.979,61.959,79.196,61.959,79.685,61.959L79.685,61.959z M88.6,52.772
	c-2.228-1.96-17.225-2.771-18.041-1.416c-1.961,3.1-7.499,22.285-7.499,30.878c0,6.415,3.31,7.232,5.538,7.232
	c4.183,0,6.416-0.544,7.504-11.092h6.693c1.351,7.231,2.49,11.631,7.227,11.631c4.172,0,4.172-7.504,2.499-21.957
	C92.249,65.003,90.827,54.727,88.6,52.772L88.6,52.772z M269.389,72.23c-1.139-3.911-1.683-7.771-2.227-11.682
	c-1.411,4.455-2.228,8.365-2.822,11.682H269.389z M284.669,82.234c-0.544,0.267-0.544,1.144,0.807,3.099
	c-0.262-0.322-0.262,1.084,0.282,1.361c-0.544-0.277-2.237,2.5-7.236,2.5c-5.816,0-6.633-4.455-7.771-8.044h-7.236
	c-0.807,4.999-0.807,7.771-7.228,7.771c-4.727,0-5.815-2.772-5.815-6.421c0-7.227,3.316-23.917,9.736-29.728
	c3.034-2.771,15.542-3.694,16.52-0.438C278.632,58.638,281.344,76.141,284.669,82.234L284.669,82.234z M136.98,54.183
	c1.956-1.95,4.455-3.099,7.227-3.099c4.183,0,6.954,2.228,9.464,7.227c3.367-3.316,8.366-6.632,14.786-4.455
	c3.851,1.411,6.622,6.692,6.622,18.918c0,6.144-0.544,10.604-1.683,14.948c-0.816,2.016-1.361,2.282-5.816,2.282
	c-3.911,0-4.727-1.904-4.727-4.621c0-14.564,0.534-17.064-1.956-17.064c-4.405,0-1.361,11.41-6.904,12.549
	c-8.104,1.905-10.876-10.593-10.331-16.681c-2.762,1.36-2.117,8.804-1.088,17.774c0.655,5.544-1.139,8.043-5.271,8.643
	c-1.684,0.272-8.366-0.866-8.366-14.463c0-8.639,2.228-15.865,5.866-19.781c-0.917,1.305-1.683,2.656-1.955,3.644
	c1.089-1.693,2.127-3.21,3.366-4.515c1.794-1.9,2.994-2.561,4.949-3.256C140.346,52.233,138.824,52.772,136.98,54.183z"/>
</svg>
