<?xml version="1.0" encoding="utf-8"?>
<!-- Generator: Adobe Illustrator 18.1.1, SVG Export Plug-In . SVG Version: 6.00 Build 0)  -->
<!DOCTYPE svg PUBLIC "-//W3C//DTD SVG 1.1//EN" "http://www.w3.org/Graphics/SVG/1.1/DTD/svg11.dtd">
<svg version="1.1" id="Layer_1" xmlns="http://www.w3.org/2000/svg" xmlns:xlink="http://www.w3.org/1999/xlink" x="0px" y="0px"
	 viewBox="0 0 391 38" enable-background="new 0 0 391 38" xml:space="preserve">
<g>
	<path fill="#FFFFFF" d="M1.747,9.33c0-1.025,0.578-1.829,1.733-2.41s2.888-0.872,5.199-0.872h14.848
		c0.369,0,0.656,0.003,0.861,0.01s0.482,0.048,0.831,0.123s0.615,0.181,0.8,0.318s0.352,0.345,0.502,0.625s0.226,0.619,0.226,1.015
		c0,0.355-0.007,0.653-0.021,0.892s-0.058,0.523-0.133,0.851s-0.185,0.595-0.328,0.8s-0.345,0.424-0.605,0.656
		s-0.574,0.414-0.943,0.543s-0.831,0.239-1.384,0.328s-1.186,0.133-1.897,0.133h-1.969c-0.82,0-1.319,1.066-1.497,3.199
		c-0.164,1.969-0.246,5.934-0.246,11.895c0,0.465,0,0.937,0,1.415c0,1.805,0,3.206,0,4.204c0,1.299-0.677,2.078-2.03,2.338
		c-0.369,0.068-0.745,0.103-1.128,0.103l-2.933-0.718c-1.354-0.684-2.03-1.511-2.03-2.481c0-11.471,0.253-17.91,0.759-19.318
		c-0.656,0-1.333-0.027-2.03-0.082s-1.453-0.167-2.266-0.338s-1.528-0.383-2.143-0.636s-1.131-0.605-1.548-1.056
		S1.747,9.904,1.747,9.33z"/>
	<path fill="#FFFFFF" d="M25.7,19.083c0-1.389,0.187-2.769,0.561-4.138c0.374-1.369,0.938-2.664,1.693-3.883
		c0.755-1.219,1.66-2.295,2.715-3.229c1.055-0.933,2.314-1.676,3.776-2.228s3.035-0.828,4.718-0.828
		c1.939,0,3.723,0.255,5.351,0.766c1.628,0.511,3.01,1.205,4.146,2.083s2.116,1.907,2.94,3.084s1.441,2.431,1.85,3.759
		c0.409,1.328,0.661,2.7,0.756,4.116c0.027,0.395,0.041,0.79,0.041,1.185c0,1.023-0.089,2.013-0.266,2.968
		c-0.245,1.337-0.644,2.624-1.195,3.858c-0.551,1.235-1.242,2.316-2.073,3.245c0.888-0.707,1.7-1.856,2.438-3.448
		c0.71-1.604,1.188-3.345,1.434-5.222c0.068-0.571,0.113-1.143,0.133-1.714c0-1.278-0.198-2.529-0.595-3.753
		c0.219,0.526,0.383,1.146,0.492,1.861c0.096,0.566,0.144,1.173,0.144,1.82c0,0.165-0.014,0.343-0.041,0.535
		c-0.028,0.878-0.125,1.784-0.291,2.717s-0.439,1.873-0.82,2.819s-0.841,1.862-1.381,2.748c-0.54,0.885-1.226,1.711-2.057,2.479
		c-0.831,0.769-1.751,1.438-2.762,2.007c-1.011,0.569-2.206,1.019-3.583,1.348c-1.378,0.33-2.863,0.494-4.456,0.494
		c-1.804,0-3.534-0.37-5.19-1.111c-1.657-0.74-3.113-1.772-4.369-3.096c-1.256-1.323-2.255-2.96-2.996-4.907
		C26.07,23.473,25.7,21.36,25.7,19.083z M32.221,18.537c0,0.984,0.154,1.891,0.462,2.721c0.308,0.829,0.715,1.521,1.222,2.073
		c0.506,0.553,1.088,1.025,1.746,1.416c0.657,0.391,1.321,0.674,1.992,0.85c0.671,0.175,1.342,0.263,2.013,0.263
		c0.862,0,1.711-0.172,2.546-0.516s1.599-0.829,2.29-1.457c0.691-0.627,1.249-1.443,1.674-2.447
		c0.424-1.004,0.637-2.114,0.637-3.328c0-2.158-0.709-3.87-2.126-5.138s-3.139-1.901-5.165-1.901c-1.438,0-2.721,0.368-3.851,1.103
		c-1.129,0.735-1.985,1.666-2.567,2.792C32.512,16.093,32.221,17.283,32.221,18.537z"/>
	<path fill="#FFFFFF" d="M54.616,11.196c0.027-1.641,0.088-3.056,0.184-4.245c0.068-0.752,0.225-1.316,0.471-1.692
		c0.245-0.376,0.647-0.653,1.207-0.831c0.341-0.082,0.838-0.137,1.494-0.164c0.109,0,0.225-0.007,0.348-0.021
		c0.545,0,1.159,0.041,1.841,0.122c0.818,0.095,1.521,0.379,2.107,0.853c0.586,0.474,0.887,1.11,0.9,1.909
		c0,0.082-0.021,1.07-0.062,2.965c-0.014,0.5-0.021,0.987-0.021,1.46c0.014,1.367,0.062,2.699,0.144,3.998
		c0.109,1.745,0.349,3.308,0.719,4.688c0.466,1.705,1.215,3.054,2.25,4.048c1.034,0.994,2.291,1.491,3.77,1.491
		c0.671,0,1.267-0.324,1.787-0.974s0.924-1.512,1.212-2.587c0.288-1.075,0.527-2.242,0.719-3.5c0.191-1.258,0.318-2.553,0.38-3.885
		c0.062-1.333,0.1-2.526,0.113-3.582c0.014-0.704,0.021-1.346,0.021-1.928c0-0.284,0-0.562,0-0.832c0-0.784-0.007-1.19-0.021-1.218
		c0.027-0.433,0.119-0.801,0.274-1.105c0.156-0.305,0.366-0.544,0.631-0.721c0.264-0.175,0.508-0.308,0.732-0.396
		c0.224-0.087,0.512-0.179,0.865-0.274c0.339-0.095,0.698-0.142,1.078-0.142c0.42,0,0.861,0.055,1.322,0.164
		c0.895,0.219,1.485,0.684,1.77,1.395c0.244,0.588,0.424,1.538,0.539,2.851s0.187,2.509,0.214,3.589
		c0.027,1.08,0.034,2.687,0.021,4.819c0,1.477-0.038,2.786-0.112,3.927s-0.224,2.311-0.449,3.507
		c-0.225,1.196-0.528,2.231-0.909,3.106c-0.381,0.875-0.888,1.709-1.521,2.502s-1.386,1.439-2.257,1.938s-1.923,0.892-3.155,1.179
		c-1.232,0.287-2.618,0.431-4.157,0.431c-1.052,0-2.029-0.058-2.931-0.174c-0.901-0.116-1.831-0.332-2.787-0.646
		c-0.957-0.314-1.831-0.725-2.624-1.23s-1.558-1.172-2.295-2c-0.738-0.826-1.387-1.787-1.947-2.881
		c-0.519-1.148-0.936-2.677-1.25-4.583c-0.314-1.907-0.499-3.859-0.553-5.855c-0.041-1.381-0.068-2.68-0.082-3.896
		C54.595,12.229,54.602,11.702,54.616,11.196z"/>
	<path fill="#FFFFFF" d="M83.983,20.512c0-1.98,0.336-3.824,1.009-5.531c0.672-1.708,1.565-3.155,2.677-4.343
		c1.112-1.188,2.389-2.206,3.83-3.053s2.924-1.468,4.448-1.864s3.041-0.594,4.551-0.594c2.67,0,4.529,0.414,5.576,1.239
		c1.047,0.826,1.571,2.222,1.571,4.185c0,0.434-0.01,0.766-0.031,0.996s-0.065,0.484-0.134,0.762
		c-0.068,0.278-0.182,0.481-0.339,0.609c-0.157,0.129-0.366,0.264-0.626,0.406c-0.261,0.143-0.603,0.241-1.028,0.295
		s-0.925,0.098-1.5,0.132c-0.576,0.034-1.274,0.051-2.097,0.051c-3.003,0-5.307,0.163-6.911,0.487
		c-1.604,0.325-2.751,0.877-3.44,1.657c-0.69,0.78-1.034,1.902-1.034,3.366c0,1.188,0.208,2.289,0.625,3.304
		c0.417,1.015,0.959,1.864,1.628,2.548s1.43,1.267,2.283,1.75c0.854,0.483,1.707,0.836,2.56,1.057
		c0.853,0.221,1.676,0.331,2.468,0.331c1.542,0,2.709-0.262,3.501-0.787c0.71-0.47,1.065-1.049,1.065-1.74
		c0-0.082-0.007-0.158-0.021-0.228c-0.041-0.29-0.139-0.524-0.296-0.704c-0.156-0.18-0.405-0.317-0.745-0.414
		c-0.34-0.097-0.67-0.169-0.989-0.218c-0.32-0.049-0.782-0.113-1.388-0.197c-0.605-0.082-1.139-0.165-1.601-0.248
		c-0.721-0.138-1.351-0.473-1.888-1.004s-0.86-1.115-0.969-1.75c0-0.069,0-0.138,0-0.207c0-0.939,0.622-1.705,1.866-2.299
		c1.326-0.635,3.015-0.953,5.065-0.953c0.752,0,1.429,0.018,2.03,0.052c0.602,0.035,1.241,0.1,1.917,0.197
		c0.677,0.097,1.265,0.238,1.764,0.425s0.964,0.424,1.395,0.714s0.755,0.66,0.974,1.108s0.328,0.963,0.328,1.543
		c0,1.901-0.298,3.676-0.895,5.324c-0.596,1.647-1.452,3.091-2.569,4.328c-1.117,1.238-2.542,2.213-4.275,2.924
		c-1.734,0.711-3.669,1.066-5.808,1.066c-1.58,0-3.084-0.188-4.513-0.564s-2.758-0.958-3.987-1.745s-2.291-1.752-3.184-2.895
		s-1.594-2.525-2.102-4.147S83.983,22.469,83.983,20.512z"/>
	<path fill="#FFFFFF" d="M115.257,30.187V20.179c0-0.848,0.007-1.586,0.021-2.215s0.045-1.391,0.093-2.287
		c0.048-0.896,0.113-1.678,0.196-2.348c0.082-0.67,0.206-1.405,0.371-2.205s0.357-1.49,0.577-2.071s0.501-1.159,0.845-1.733
		c0.343-0.574,0.728-1.039,1.154-1.395s0.927-0.646,1.504-0.872c0.577-0.226,1.216-0.338,1.917-0.338c0.027,0,0.096,0,0.206,0
		s0.186,0,0.227,0c0.041,0,0.11,0.003,0.206,0.01c0.096,0.007,0.175,0.017,0.237,0.031c0.062,0.014,0.134,0.034,0.216,0.062
		s0.168,0.062,0.257,0.103c0.089,0.041,0.175,0.089,0.258,0.144c0.302,0.178,0.48,0.711,0.536,1.6
		c0.055,0.725,0.075,2.037,0.062,3.938c0,0.424,0,0.875,0,1.354c-0.014,1.709-0.021,3.097-0.021,4.163
		c2.847-0.328,4.679-0.492,5.496-0.492c0.096-1.244,0.164-2.451,0.205-3.62s0.062-2.061,0.062-2.676s-0.007-1.265-0.021-1.948
		s-0.021-1.06-0.021-1.128c0-0.451,0.13-0.82,0.39-1.107s0.643-0.431,1.148-0.431h4.614c0.273,0,0.52,0.072,0.738,0.215
		s0.4,0.335,0.543,0.574s0.273,0.523,0.39,0.851s0.202,0.677,0.256,1.046s0.106,0.745,0.154,1.128s0.072,0.759,0.072,1.128
		s0.007,0.714,0.021,1.036s0.014,0.605,0,0.851c0,0.178,0,0.301,0,0.369c0,2.529,0.021,3.979,0.062,4.348
		c0.014,0.15,0.075,0.369,0.185,0.656s0.164,0.561,0.164,0.82c0,0.205-0.027,0.407-0.082,0.605s-0.14,0.434-0.256,0.708
		s-0.188,0.444-0.215,0.513v12.735c0,0.355-0.065,0.67-0.195,0.943s-0.325,0.496-0.584,0.667s-0.533,0.311-0.82,0.42
		s-0.643,0.188-1.066,0.236c-0.424,0.047-0.807,0.078-1.148,0.092s-0.752,0.021-1.23,0.021c-0.738,0-1.34-0.055-1.805-0.164
		s-0.8-0.283-1.005-0.522s-0.335-0.479-0.39-0.719c-0.055-0.238-0.082-0.563-0.082-0.974v-9.598
		c-1.73,0.137-3.589,0.205-5.578,0.205c-0.068,0.342-0.133,1.562-0.195,3.661s-0.092,3.469-0.092,4.111
		c0,0.479-0.024,0.902-0.072,1.271c-0.048,0.369-0.127,0.688-0.237,0.953c-0.11,0.268-0.216,0.496-0.32,0.688
		c-0.103,0.191-0.257,0.346-0.463,0.461c-0.206,0.117-0.381,0.209-0.525,0.277c-0.144,0.068-0.357,0.116-0.639,0.144
		s-0.501,0.045-0.66,0.052c-0.158,0.007-0.402,0.01-0.731,0.01c-0.811,0-1.525-0.103-2.144-0.308s-1.099-0.462-1.442-0.769
		c-0.343-0.309-0.622-0.67-0.834-1.088c-0.213-0.416-0.351-0.796-0.412-1.138C115.288,30.891,115.257,30.542,115.257,30.187z"/>
	<path fill="#FFFFFF" d="M151.7,27.254c0-1.504,0.044-2.943,0.133-4.317c0.089-1.374,0.243-2.769,0.461-4.184
		s0.496-2.714,0.831-3.896s0.769-2.3,1.302-3.353s1.138-1.945,1.815-2.676s1.487-1.309,2.43-1.733s1.976-0.636,3.097-0.636
		c1.859,0,3.592,0.489,5.199,1.466s2.881,2.15,3.825,3.517c0.684-1.34,1.576-2.423,2.676-3.25s2.403-1.241,3.907-1.241
		c3.188,0,5.742,1.446,7.662,4.337c1.919,2.892,2.879,6.956,2.879,12.192v2.871c0,0.697,0,1.228,0,1.589
		c0,0.363-0.007,0.831-0.021,1.405s-0.038,1.005-0.071,1.292c-0.034,0.287-0.078,0.646-0.133,1.076
		c-0.055,0.432-0.126,0.753-0.215,0.965s-0.194,0.461-0.316,0.748s-0.265,0.496-0.429,0.625c-0.164,0.131-0.354,0.268-0.572,0.41
		c-0.218,0.145-0.466,0.239-0.746,0.287s-0.589,0.072-0.929,0.072c-0.123,0-0.3,0-0.531,0c-0.518,0-0.912,0-1.185,0
		s-0.65-0.021-1.133-0.062c-0.483-0.041-0.858-0.103-1.123-0.185c-0.266-0.082-0.569-0.205-0.909-0.369
		c-0.34-0.164-0.603-0.362-0.787-0.595s-0.34-0.529-0.47-0.892s-0.194-0.783-0.194-1.262v-7.485
		c-0.178-3.555-1.039-5.332-2.584-5.332c-0.232,0-0.414,0.167-0.543,0.502s-0.215,0.779-0.256,1.333s-0.099,1.183-0.174,1.887
		s-0.164,1.425-0.267,2.164s-0.301,1.46-0.595,2.164s-0.656,1.332-1.087,1.887c-0.431,0.553-1.032,0.998-1.805,1.332
		c-0.772,0.336-1.671,0.503-2.697,0.503c-0.52,0-1.025-0.078-1.518-0.235s-0.954-0.396-1.384-0.719
		c-0.431-0.32-0.779-0.769-1.046-1.343s-0.4-1.237-0.4-1.989c0-0.205,0.014-0.554,0.041-1.046s0.048-0.971,0.062-1.436
		s0.021-0.991,0.021-1.579s-0.034-1.121-0.103-1.6s-0.164-0.926-0.287-1.343s-0.311-0.742-0.564-0.974s-0.557-0.349-0.913-0.349
		c-0.643,0-1.189,0.584-1.641,1.753s-0.813,2.587-1.087,4.255s-0.55,3.336-0.831,5.004s-0.653,3.087-1.118,4.255
		c-0.465,1.17-1.032,1.754-1.702,1.754s-1.275-0.264-1.815-0.789c-0.54-0.526-0.96-1.193-1.261-2s-0.526-1.623-0.677-2.451
		C151.775,28.755,151.7,27.979,151.7,27.254z"/>
	<path fill="#FFFFFF" d="M189.906,20.666c0-1.967,0.137-4.283,0.41-6.95c0.273-2.666,0.581-4.533,0.923-5.6
		c0.15-0.526,0.458-0.99,0.923-1.392s0.984-0.7,1.559-0.894s1.101-0.336,1.579-0.426s0.875-0.135,1.189-0.135
		c1.723,0,2.584,1.655,2.584,4.966c0,0.457-0.092,1.943-0.277,4.457s-0.277,4.034-0.277,4.56c0,1.219,0.096,2.262,0.287,3.127
		s0.414,1.517,0.667,1.953s0.584,0.775,0.995,1.018s0.759,0.385,1.046,0.426c0.287,0.042,0.643,0.062,1.066,0.062
		c0.957,0,1.832-0.121,2.625-0.363s1.453-0.555,1.979-0.936c0.526-0.382,0.988-0.835,1.384-1.362
		c0.396-0.526,0.704-1.046,0.923-1.559s0.396-1.053,0.533-1.621c0.137-0.568,0.226-1.054,0.267-1.456
		c0.041-0.401,0.062-0.783,0.062-1.143V6.405c0-0.36,0.097-0.657,0.292-0.889c0.194-0.232,0.453-0.39,0.775-0.472
		s0.567-0.133,0.735-0.154s0.346-0.031,0.534-0.031c0.671,0,1.373,0.096,2.104,0.287c0.732,0.191,1.433,0.468,2.104,0.831
		c0.671,0.362,1.225,0.854,1.661,1.477c0.436,0.622,0.654,1.316,0.654,2.082v6.439c0,2.119-0.173,4.088-0.518,5.906
		c-0.345,1.818-0.914,3.531-1.705,5.138s-1.793,2.97-3.004,4.091c-1.211,1.121-2.724,2.007-4.537,2.655
		c-1.813,0.65-3.87,0.975-6.17,0.975c-1.285,0-2.55-0.169-3.794-0.505c-1.244-0.338-2.447-0.877-3.609-1.618
		s-2.181-1.648-3.056-2.72s-1.579-2.403-2.112-3.993C190.172,24.312,189.906,22.566,189.906,20.666z"/>
	<path fill="#FFFFFF" d="M221.898,27.541V10.109c0-1.627,0.42-2.898,1.26-3.814s1.992-1.374,3.456-1.374
		c1.753,0,3.996,0.256,6.729,0.769c2.732,0.513,4.51,0.933,5.332,1.261c1.603,0.67,2.911,1.354,3.925,2.051
		c3.246,2.283,5.116,5.332,5.609,9.146c0.082,0.547,0.13,1.073,0.144,1.579c0,0.068,0,0.137,0,0.205c0,0.438-0.042,0.848-0.124,1.23
		c-0.083,0.465-0.161,0.885-0.237,1.261c-0.075,0.376-0.216,0.759-0.422,1.148s-0.364,0.708-0.473,0.954
		c-0.11,0.246-0.309,0.537-0.597,0.871c-0.288,0.336-0.477,0.568-0.566,0.697c-0.089,0.131-0.292,0.336-0.607,0.615
		c-0.315,0.281-0.487,0.435-0.515,0.462c-0.027,0.027-0.178,0.15-0.453,0.369c-0.069,0.055-0.117,0.096-0.144,0.123
		c-0.782,0.67-1.884,1.299-3.304,1.887c-1.42,0.588-2.724,1.029-3.911,1.323c-1.187,0.294-2.34,0.557-3.458,0.789
		c-1.118,0.232-1.684,0.349-1.698,0.349c-0.137,0.041-0.124,0.027,0.041-0.041c1.372-0.574,2.113-0.902,2.223-0.984
		c0.041-0.041,0.062-0.068,0.062-0.082c0-0.055-0.275-0.034-0.824,0.062s-1.194,0.26-1.935,0.492
		c-0.741,0.232-1.325,0.485-1.75,0.759c0.176-0.219,0.458-0.444,0.847-0.677s0.729-0.42,1.024-0.564
		c0.294-0.143,0.441-0.242,0.441-0.297c-0.014-0.096-0.294,0-0.841,0.287c-0.547,0.287-1.227,0.625-2.041,1.016
		c-0.813,0.389-1.477,0.611-1.992,0.666c-0.339,0.055-0.657,0.082-0.956,0.082c-0.556,0-1.064-0.089-1.524-0.267
		c-0.705-0.273-1.247-0.69-1.626-1.251s-0.657-1.148-0.833-1.764S221.898,28.197,221.898,27.541z M231.188,26.208
		c0.615-0.205,1.196-0.431,1.743-0.677s1.118-0.567,1.712-0.964s1.101-0.824,1.518-1.282s0.742-1.001,0.974-1.63
		c0.178-0.465,0.267-0.957,0.267-1.477c0-0.178-0.014-0.362-0.041-0.554c-0.109-0.67-0.393-1.265-0.851-1.784
		s-0.981-0.913-1.569-1.179s-1.166-0.485-1.733-0.656s-1.042-0.277-1.425-0.318l-0.595-0.062V26.208z"/>
	<path fill="#FFFFFF" d="M248.763,12.786c0-1.48,0.166-2.498,0.498-3.055c0.083-0.136,0.249-0.441,0.498-0.917
		c0.111-0.19,0.173-0.356,0.187-0.499c0.014-0.142,0.048-0.274,0.104-0.397c0.235-0.462,0.421-0.855,0.56-1.182
		c0.083-0.19,0.346-0.4,0.788-0.631c0.429-0.217,1.168-0.414,2.219-0.591c0.76-0.122,1.598-0.183,2.51-0.183
		c0.348,0,0.711,0.007,1.088,0.021c0.92,0.042,1.879,0.165,2.877,0.371c0.998,0.206,2.033,0.519,3.107,0.938
		s2.104,0.917,3.088,1.493c0.982,0.577,1.922,1.288,2.814,2.132s1.668,1.768,2.322,2.771c0.656,1.002,1.176,2.163,1.561,3.48
		c0.383,1.318,0.574,2.719,0.574,4.202c0,1.77-0.307,3.437-0.92,5.002c-0.613,1.564-1.473,2.933-2.574,4.103
		c-1.102,1.171-2.393,2.178-3.871,3.021s-3.109,1.483-4.895,1.919s-3.648,0.653-5.588,0.653c-1.74,0-3.172-0.534-4.291-1.604
		c-1.12-1.068-1.791-2.356-2.012-3.864c-0.166-1.109-0.3-3.086-0.404-5.93c-0.104-2.843-0.169-5.197-0.197-7.06
		C248.777,15.115,248.763,13.717,248.763,12.786z M256.229,19.232c0,0.209-0.008,0.432-0.021,0.669c0,0.475,0.008,0.991,0.021,1.548
		c0.014,0.865,0.055,1.636,0.123,2.312c0.066,0.677,0.162,1.325,0.285,1.946c0.123,0.62,0.297,1.102,0.523,1.443
		c0.225,0.342,0.486,0.513,0.787,0.513c1.242,0,2.479-0.311,3.715-0.932c1.234-0.62,2.285-1.526,3.15-2.719
		c0.867-1.193,1.301-2.501,1.301-3.924c0-2.023-0.703-3.501-2.109-4.436c-1.404-0.935-3.471-1.402-6.199-1.402
		c-0.561,0-0.955,0.167-1.188,0.502c-0.232,0.335-0.348,0.691-0.348,1.067c0,0.209-0.008,0.669-0.021,1.381
		S256.229,18.59,256.229,19.232z"/>
	<path fill="#FFFFFF" d="M274.11,25.972c0-3.07,0.055-5.694,0.164-7.873s0.304-4.125,0.585-5.837
		c0.279-1.713,0.635-3.09,1.066-4.132c0.43-1.041,0.997-1.904,1.701-2.589c0.704-0.686,1.498-1.158,2.379-1.418
		c0.883-0.26,1.952-0.391,3.21-0.391c0.096,0,0.499-0.007,1.21-0.021c0.355,0,0.656,0,0.902,0s0.451,0,0.615,0
		c0.301,0,0.789,0.024,1.467,0.071c0.676,0.047,1.216,0.114,1.619,0.202s0.852,0.215,1.344,0.383
		c0.492,0.168,0.902,0.374,1.23,0.615c0.369,0.31,0.554,0.788,0.554,1.433c0,0.498-0.103,0.938-0.307,1.322
		c-0.205,0.383-0.454,0.7-0.747,0.948c-0.294,0.249-0.686,0.461-1.177,0.636s-0.935,0.306-1.33,0.394s-0.894,0.155-1.494,0.202
		c-0.601,0.047-1.064,0.074-1.392,0.081c-0.327,0.006-0.757,0.01-1.289,0.01h-1.126c-0.464,0-0.695,0.23-0.695,0.689v2.211
		c0,0.243,0.078,0.433,0.235,0.568s0.359,0.203,0.605,0.203h2.03c3.404,0,5.106,1.049,5.106,3.148s-1.702,3.148-5.106,3.148h-2.03
		c-0.246,0-0.448,0.069-0.605,0.207s-0.235,0.331-0.235,0.579v5.771c0,0.482,0.231,0.724,0.695,0.724h1.126
		c0.546,0,0.976,0.004,1.289,0.011c0.313,0.006,0.781,0.033,1.402,0.081c0.62,0.047,1.129,0.111,1.524,0.192
		c0.396,0.082,0.843,0.21,1.34,0.386c0.498,0.177,0.894,0.39,1.188,0.641c0.293,0.25,0.546,0.568,0.757,0.954
		c0.212,0.386,0.317,0.829,0.317,1.33c0,0.663-0.185,1.151-0.554,1.462c-0.465,0.339-1.545,0.609-3.24,0.812
		s-3.438,0.325-5.229,0.366c-1.791,0.04-3.479,0.074-5.065,0.102c-0.52,0-0.971,0-1.354,0c-0.752,0-1.21-0.014-1.374-0.041h-0.062
		c-0.479,0-0.807-0.55-0.984-1.65C274.199,30.8,274.11,28.823,274.11,25.972z"/>
	<path fill="#FFFFFF" d="M293.573,23.132c0-6.959,0.751-11.532,2.253-13.72c1.088-1.572,2.749-2.741,4.981-3.507
		c2.053-0.697,4.367-1.046,6.944-1.046c0.233,0,0.468,0,0.702,0c3.345,0.096,5.895,0.875,7.649,2.338s2.633,3.343,2.633,5.64
		c0,1.094-0.128,2.075-0.383,2.943c-0.256,0.868-0.584,1.572-0.984,2.112s-0.874,1.008-1.419,1.405
		c-0.546,0.396-1.088,0.684-1.627,0.861c-0.538,0.178-1.098,0.314-1.678,0.41s-1.074,0.144-1.48,0.144
		c-0.407,0-0.781-0.007-1.122-0.021s-0.525-0.021-0.553-0.021c0.372,0.424,1.143,1.381,2.312,2.871
		c1.169,1.49,2.345,2.902,3.525,4.234c1.181,1.334,2.316,2.444,3.408,3.333c0.273,0.273,0.41,0.608,0.41,1.005
		c0,0.164-0.027,0.335-0.081,0.513c-0.202,0.766-0.775,1.306-1.719,1.62c-0.526,0.191-1.112,0.287-1.759,0.287
		c-1.11,0-2.405-0.26-3.886-0.779c-0.686-0.232-1.449-0.796-2.292-1.691s-1.624-1.897-2.343-3.005
		c-0.72-1.107-1.398-2.235-2.035-3.384c-0.638-1.148-1.148-2.126-1.532-2.933s-0.596-1.312-0.637-1.518v11.771
		c0,0.561-0.235,1.005-0.707,1.333c-0.471,0.328-1.088,0.492-1.85,0.492c-1.953,0-3.564-1.032-4.832-3.097
		S293.573,26.796,293.573,23.132z M302.781,14.867c0.014,0,0.14,0.024,0.379,0.072c0.238,0.048,0.497,0.096,0.777,0.144
		c0.279,0.048,0.63,0.106,1.053,0.174c0.409,0.055,0.818,0.089,1.228,0.103c0.272,0.014,0.552,0.021,0.839,0.021
		c0.136,0,0.279,0,0.43,0c0.436,0,0.835-0.051,1.196-0.154s0.688-0.232,0.981-0.39s0.525-0.376,0.695-0.656
		c0.171-0.28,0.256-0.612,0.256-0.995c0.014-1.039-0.634-1.682-1.943-1.928c-0.368-0.068-0.743-0.103-1.125-0.103
		c-0.94,0-1.875,0.219-2.802,0.656c-1.31,0.629-1.964,1.483-1.964,2.563V14.867z"/>
	<path fill="#FFFFFF" d="M328.907,11.196c0.027-1.641,0.089-3.056,0.184-4.245c0.068-0.752,0.226-1.316,0.471-1.692
		c0.246-0.376,0.647-0.653,1.207-0.831c0.342-0.082,0.839-0.137,1.494-0.164c0.108,0,0.225-0.007,0.348-0.021
		c0.545,0,1.159,0.041,1.841,0.122c0.818,0.095,1.521,0.379,2.107,0.853c0.586,0.474,0.887,1.11,0.9,1.909
		c0,0.082-0.021,1.07-0.062,2.965c-0.014,0.5-0.021,0.987-0.021,1.46c0.014,1.367,0.062,2.699,0.144,3.998
		c0.11,1.745,0.35,3.308,0.72,4.688c0.465,1.705,1.215,3.054,2.249,4.048c1.034,0.994,2.291,1.491,3.771,1.491
		c0.671,0,1.267-0.324,1.787-0.974s0.925-1.512,1.212-2.587c0.288-1.075,0.527-2.242,0.72-3.5c0.191-1.258,0.318-2.553,0.38-3.885
		c0.062-1.333,0.1-2.526,0.113-3.582c0.014-0.704,0.021-1.346,0.021-1.928c0-0.284,0-0.562,0-0.832c0-0.784-0.007-1.19-0.021-1.218
		c0.027-0.433,0.118-0.801,0.274-1.105c0.156-0.305,0.366-0.544,0.631-0.721c0.265-0.175,0.509-0.308,0.732-0.396
		c0.224-0.087,0.512-0.179,0.864-0.274c0.339-0.095,0.698-0.142,1.078-0.142c0.42,0,0.86,0.055,1.322,0.164
		c0.895,0.219,1.484,0.684,1.77,1.395c0.244,0.588,0.423,1.538,0.538,2.851c0.116,1.312,0.187,2.509,0.214,3.589
		s0.034,2.687,0.021,4.819c0,1.477-0.037,2.786-0.112,3.927c-0.074,1.142-0.224,2.311-0.448,3.507
		c-0.225,1.196-0.527,2.231-0.909,3.106c-0.381,0.875-0.889,1.709-1.521,2.502s-1.386,1.439-2.257,1.938
		c-0.872,0.499-1.924,0.892-3.156,1.179s-2.617,0.431-4.156,0.431c-1.052,0-2.029-0.058-2.931-0.174s-1.831-0.332-2.787-0.646
		c-0.957-0.314-1.831-0.725-2.624-1.23c-0.792-0.506-1.558-1.172-2.295-2c-0.737-0.826-1.387-1.787-1.946-2.881
		c-0.52-1.148-0.937-2.677-1.251-4.583c-0.314-1.907-0.498-3.859-0.553-5.855c-0.041-1.381-0.068-2.68-0.082-3.896
		C328.887,12.229,328.894,11.702,328.907,11.196z"/>
	<path fill="#FFFFFF" d="M358.798,16.118c-0.021-1.066-0.03-1.958-0.03-2.676s0.014-1.494,0.041-2.328s0.095-1.487,0.204-1.958
		c0.108-0.472,0.258-0.742,0.448-0.81c0.367-0.123,0.871-0.226,1.51-0.308c0.449-0.055,0.959-0.082,1.53-0.082
		c0.231,0,0.482,0,0.755,0c0.87,0.027,1.646,0.157,2.326,0.39c0.244,0.082,0.445,0.304,0.602,0.667s0.262,0.899,0.316,1.61
		c0.054,0.711,0.088,1.312,0.102,1.805c0,0.205,0,0.438,0,0.697c0,0.41,0,0.902,0,1.477c-0.027,0.957-0.041,1.559-0.041,1.805
		c0.15-0.123,0.95-0.81,2.399-2.061s2.696-2.297,3.743-3.138c1.045-0.841,2.297-1.812,3.752-2.912
		c1.457-1.101,2.748-1.948,3.877-2.543c1.127-0.595,2.02-0.892,2.676-0.892c0.355,0,0.854,0.215,1.497,0.646
		s1.241,1.008,1.794,1.733c0.555,0.725,0.831,1.422,0.831,2.092c0,0.506-0.164,0.854-0.492,1.046
		c-0.998,0.82-2.96,2.328-5.886,4.522s-4.785,3.558-5.578,4.091c0.779,0.574,3.527,2.885,8.244,6.932
		c1.271,1.094,2.208,2.105,2.81,3.035s0.902,1.9,0.902,2.912c0,0.26-0.071,0.595-0.216,1.005c-0.143,0.41-0.42,0.824-0.83,1.241
		s-0.902,0.625-1.477,0.625c-0.027,0-0.062,0-0.103,0c-0.861,0-3.425-1.675-7.69-5.024c-4.443-3.5-7.813-6.351-10.11-8.552
		c-0.041,0.232-0.062,0.636-0.062,1.21c0,0.287,0.007,0.622,0.021,1.005c0.027,1.148,0.075,2.594,0.144,4.338
		c0.068,1.742,0.103,2.73,0.103,2.963c0,0.137,0,0.321,0,0.554c0,0.396,0,0.684,0,0.861s-0.007,0.41-0.021,0.697
		s-0.034,0.492-0.062,0.615s-0.068,0.28-0.123,0.472s-0.119,0.325-0.194,0.4s-0.17,0.171-0.286,0.287
		c-0.115,0.115-0.251,0.19-0.407,0.225s-0.34,0.075-0.551,0.123s-0.442,0.079-0.694,0.093c-0.251,0.014-0.54,0.021-0.866,0.021
		c-0.979,0-1.731-0.161-2.255-0.482c-0.523-0.32-0.955-0.816-1.296-1.486c-0.435-0.916-0.765-2.994-0.989-6.234
		c-0.224-3.24-0.336-6.057-0.336-8.449C358.829,17.937,358.818,17.185,358.798,16.118z"/>
</g>
</svg>
