<svg version="1.1" id="Layer_1" xmlns="http://www.w3.org/2000/svg" xmlns:xlink="http://www.w3.org/1999/xlink" x="0px" y="0px"
	 viewBox="0 0 160 50" enable-background="new 0 0 160 50" preserveAspectRatio="none">
<g>
	<path fill="#CE0613" d="M98.6,45.3c-0.3,0-0.7-0.1-1-0.3c-1.1-0.6-1.4-2-0.9-4l7.5-29c-2.9,3.2-13.9,14.8-20.4,14.8
		c-2.7,0-5.4,1.1-7.3,1.8c-2.1,0.8-3.5,1.4-4.6,0.6c-0.3-0.2-0.9-0.8-0.9-1.9c0-0.2,0-0.3,0.1-0.5l6.4-17.6L55.8,39.5
		c-1.7,2.1-3.1,2.1-3.9,1.8C51,41,49.9,40.1,50,37.5c0,0,0-0.1,0-0.1L52,15L40.6,31.3c-1.7,2.2-3.2,2.1-3.9,1.9
		c-0.7-0.2-2-1-2.1-3.7c0-0.1,0-0.1,0-0.2l0.8-11.8v0l-18,18.4c-2,1.8-3.5,1.6-4.3,1.3c-0.8-0.3-2.1-1.2-2.2-3.8c0-0.1,0-0.1,0-0.2
		l0.6-15.7c-0.9,1.3-3.1,4.5-4.8,6.1c-0.4,0.4-3.2,3.2-6.9,3.2c-0.8,0-1.5-0.7-1.5-1.5s0.7-1.5,1.5-1.5c2.5,0,4.7-2.3,4.7-2.3
		c0,0,0.1-0.1,0.1-0.1c1.9-1.7,4.8-6.2,4.8-6.2c1.3-1.8,2.6-2.4,3.8-1.9c1.1,0.5,1.6,1.8,1.3,3.8L14,33.3c0.1,0.8,0.3,1.1,0.4,1.2
		c0.1,0,0.5-0.1,1.1-0.7l18-18.4c1.7-1.9,3-1.9,3.8-1.5c0.8,0.4,1.6,1.4,1.2,3.9l-0.8,11.6c0,0.3,0,0.5,0.1,0.6
		c0.1-0.1,0.3-0.3,0.5-0.5l12.9-18.6c0.6-0.9,1.8-2.8,3.3-2.1c1.5,0.7,1,2.6,0.7,3.8l-2.2,25c0,0.2,0,0.4,0,0.5
		c0.1-0.1,0.2-0.3,0.4-0.4l22.9-32c0,0,0.1-0.1,0.1-0.1C76.9,5,78.5,3.2,80.2,4c1.7,0.8,1.1,3.2,1,4c0,0.1,0,0.1-0.1,0.2l-6.5,17.9
		c0.3-0.1,0.6-0.2,0.9-0.3c2.2-0.9,5.2-2,8.4-2c4.3,0,13.8-8.8,18.7-14.4c0,0,0.1-0.1,0.1-0.1c1.6-1.4,3-1.8,4-1
		c1,0.7,1.2,2.1,0.5,4L100,40.7l27.5-35.3c0.1-0.1,0.1-0.1,0.2-0.2c1.9-1.8,3.3-1.6,4.1-1.1c0.8,0.5,1.6,1.5,1,4.1l-3,16.7
		c-0.1,0.4,0,0.6,0,0.8c0.2-0.1,0.4-0.2,0.7-0.5l23.1-17.4c2.3-1.6,3.7-1,4.3-0.6c0.6,0.4,1.6,1.6,0.8,4.2l-4.5,13.6
		c0.6-0.1,1.4-0.3,2-0.5c1-0.3,2.2-0.6,3.4-0.8c0.8-0.1,1.6,0.4,1.7,1.2c0.1,0.8-0.4,1.6-1.2,1.7c-1,0.2-2.1,0.4-3.1,0.7
		c-2.2,0.6-4,1.1-5.2,0c-0.4-0.4-0.9-1.1-0.7-2.5c0-0.1,0-0.2,0.1-0.3l4.7-14.2c0.1-0.3,0.1-0.5,0.1-0.7c-0.2,0.1-0.4,0.2-0.7,0.4
		l-23,17.3c-2,1.7-3.5,1.3-4.1,0.9c-0.7-0.4-1.8-1.4-1.4-4.1l3-16.8c0-0.1,0-0.2,0.1-0.3c0,0-0.1,0.1-0.1,0.1l-28.1,36.1
		c0,0-0.1,0.1-0.1,0.1C100.5,44.7,99.5,45.3,98.6,45.3z"/>
</g>
</svg>
