<?xml version="1.0" encoding="utf-8"?>
<!-- Generator: Adobe Illustrator 17.1.0, SVG Export Plug-In . SVG Version: 6.00 Build 0)  -->
<!DOCTYPE svg PUBLIC "-//W3C//DTD SVG 1.1//EN" "http://www.w3.org/Graphics/SVG/1.1/DTD/svg11.dtd">
<svg version="1.1" id="Layer_1" xmlns="http://www.w3.org/2000/svg" xmlns:xlink="http://www.w3.org/1999/xlink" x="0px" y="0px"
	 viewBox="0 0 88 44" enable-background="new 0 0 88 44" xml:space="preserve">
<path fill="#1D1D1B" d="M32.81,13.66V9.6h-1.26v4.61c0,0.39-0.01,0.71-0.06,0.91c-0.16,0.67-0.61,0.99-1.48,0.99
	c-0.8,0-1.24-0.3-1.42-0.9c-0.06-0.2-0.08-0.52-0.08-0.91V9.6h-1.49v4.19c0,1.02,0.08,1.73,0.4,2.21c0.4,0.62,1.18,1.07,2.53,1.07
	c1.49,0,2.21-0.6,2.54-1.27C32.69,15.4,32.81,14.84,32.81,13.66L32.81,13.66z"/>
<path fill="#1D1D1B" d="M38.73,16.96v-3.22c0-0.24,0-0.67-0.08-1.04c-0.13-0.54-0.56-1.19-1.68-1.19c-1.14,0-1.6,0.66-1.6,0.66
	v-0.54h-1.42v5.34h1.46v-4.34c0,0,0.33-0.18,0.8-0.18c0.54,0,0.9,0.21,1,0.71c0.04,0.2,0.04,0.48,0.04,0.75v3.05H38.73z M41.5,10.08
	c0-0.45-0.33-0.75-0.83-0.75c-0.53,0-0.86,0.3-0.86,0.78c0,0.45,0.33,0.75,0.83,0.75C41.17,10.86,41.5,10.56,41.5,10.08L41.5,10.08z
	 M41.39,16.96v-5.34h-1.46v5.34H41.39z M47.26,11.62h-1.29l-1.03,3.45c-0.07,0.26-0.19,0.66-0.19,0.66s-0.04-0.23-0.16-0.64
	l-1.02-3.47h-1.57l1.88,5.35h1.42L47.26,11.62z M52.28,14.38c0-0.02,0-0.07,0-0.08c0-0.58-0.03-1.29-0.32-1.81
	c-0.33-0.58-0.89-0.97-1.94-0.97c-2.17,0-2.54,1.78-2.54,2.78c0,2.14,1.31,2.74,2.77,2.74c1.25,0,1.83-0.31,1.83-0.31l-0.28-0.8
	c0,0-0.41,0.24-1.14,0.24c-1.03,0-1.71-0.64-1.71-1.68c0,0,0-0.07,0-0.1H52.28z M50.83,13.65h-1.87c0-0.09,0-0.37,0.06-0.63
	c0.12-0.48,0.37-0.79,0.89-0.79c0.63,0,0.92,0.4,0.92,1.19V13.65z M56.58,11.67c-0.16-0.06-0.36-0.14-0.7-0.14
	c-0.91,0-1.28,0.79-1.28,0.79v-0.71h-1.42v5.34h1.46v-4.19c0,0,0.28-0.19,0.78-0.19c0.48,0,0.78,0.2,0.87,0.26L56.58,11.67z"/>
<path fill="#1D1D1B" d="M60.55,15.38c0-0.72-0.36-1.13-1-1.46l-0.76-0.39c-0.43-0.22-0.63-0.32-0.63-0.66
	c0-0.41,0.39-0.52,0.82-0.52c0.67,0,1.16,0.28,1.16,0.28l0.29-0.83c0,0-0.58-0.28-1.64-0.28c-1.19,0-1.92,0.51-1.92,1.52
	c0,0.75,0.36,1.14,1.06,1.52l0.78,0.43c0.35,0.2,0.5,0.29,0.5,0.6c0,0.4-0.31,0.59-0.89,0.59c-0.88,0-1.35-0.29-1.35-0.29
	l-0.29,0.83c0,0,0.57,0.31,1.8,0.31C59.6,17.04,60.55,16.6,60.55,15.38L60.55,15.38z M63.09,10.08c0-0.45-0.33-0.75-0.83-0.75
	c-0.53,0-0.86,0.3-0.86,0.78c0,0.45,0.33,0.75,0.83,0.75C62.76,10.86,63.09,10.56,63.09,10.08L63.09,10.08z M62.97,16.96v-5.34
	h-1.46v5.34H62.97z M67.55,16.79l-0.24-0.8c0,0-0.27,0.15-0.63,0.15c-0.69,0-0.75-0.44-0.75-0.97v-2.74h1.57v-0.79h-1.57v-1.25
	h-0.95l-0.01,0.09c-0.09,0.54-0.48,1.05-1.02,1.23l-0.15,0.05v0.67h0.67v2.65c0,0.41,0.02,0.83,0.1,1.08
	c0.23,0.67,0.76,0.86,1.63,0.86C66.92,17.02,67.4,16.85,67.55,16.79L67.55,16.79z"/>
<path fill="#1D1D1B" d="M73.07,11.62h-1.29l-0.98,3.48c-0.08,0.3-0.18,0.65-0.18,0.65s-0.03-0.22-0.17-0.67l-1.05-3.46h-1.58
	l2.14,5.6l-0.18,0.49c-0.18,0.5-0.4,0.74-0.84,0.74c-0.27,0-0.59-0.13-0.59-0.13l-0.14,0.86c0,0,0.31,0.14,0.91,0.14
	c0.87,0,1.4-0.37,1.76-1.41L73.07,11.62z"/>
<path fill="#1D1D1B" d="M80.24,14.21c0-1.67-0.91-2.7-2.58-2.7c-1.95,0-2.69,1.39-2.69,2.88c0,1.67,0.92,2.7,2.59,2.7
	C79.51,17.08,80.24,15.7,80.24,14.21L80.24,14.21z M78.73,14.3c0,1.28-0.28,1.93-1.11,1.93c-0.85,0-1.14-0.72-1.14-1.95
	c0-1.28,0.29-1.92,1.12-1.92C78.46,12.36,78.73,13.07,78.73,14.3L78.73,14.3z M84.27,9.07c0,0-0.37-0.18-1.08-0.18
	c-1,0-1.54,0.4-1.77,1.14c-0.12,0.38-0.1,1.02-0.1,1.32v0.28h-0.67v0.79h0.67v4.53h1.44v-4.53h1.09v-0.79h-1.09v-0.77
	c0-0.4,0.01-0.66,0.1-0.82c0.1-0.19,0.28-0.31,0.63-0.31c0.34,0,0.54,0.14,0.54,0.14L84.27,9.07z"/>
<path fill="#1D1D1B" d="M64.04,19.7c-0.88,0-1.42,0.48-1.42,1.24c0,0.72,0.53,1.18,1.36,1.18c0.88,0,1.42-0.48,1.42-1.24
	C65.4,20.16,64.87,19.7,64.04,19.7z"/>
<path fill="#1D1D1B" d="M40,23.18c-3.6,0-3.99,2.97-3.99,4.25c0,3.43,2.34,4.15,4.3,4.15c1.75,0,2.69-0.35,2.93-0.46
	c-0.05-0.14-0.35-1.05-0.41-1.22c-0.23,0.1-0.84,0.33-1.74,0.33c-1.82,0-2.63-1.19-2.63-2.36v-0.21c0,0,4.92,0,5.11,0
	c0-0.02,0-0.05,0-0.05c0-0.92-0.05-2.07-0.47-2.86C42.52,23.69,41.54,23.18,40,23.18z M41.21,26.56h-2.77v-0.1
	c0-0.21,0-0.59,0.07-0.95c0.16-0.86,0.59-1.28,1.32-1.28c0.94,0,1.37,0.57,1.37,1.78V26.56z"/>
<path fill="#1D1D1B" d="M32.49,26.58c0.09-0.03,2.3-0.66,2.3-3.28c0-2.13-1.8-2.73-2.35-2.86c-0.63-0.15-1.61-0.22-3-0.22
	c-1.13,0-2.13,0.06-2.42,0.07c0,0.18,0,10.98,0,11.17c0.17,0,2.17,0,2.34,0c0-0.19,0-4.51,0-4.51h0.68c0,0,3.13,4.43,3.18,4.51
	c0.09,0,2.48,0,2.82,0c-0.23-0.29-3.7-4.84-3.7-4.84L32.49,26.58z M31.1,25.78c-0.26,0.07-0.42,0.08-0.98,0.08l-0.76-0.02v-4.36
	l0.08-0.01c0.01,0,0.21-0.03,0.71-0.03c1.47,0,2.18,0.71,2.18,2.18C32.34,24.99,31.7,25.63,31.1,25.78z"/>
<path fill="#1D1D1B" d="M48.24,23.17c-1.68,0-2.73,0.34-3.01,0.44c0.05,0.15,0.38,1.08,0.43,1.25c0.24-0.11,0.93-0.37,1.91-0.37
	c0.49,0,1.17,0.07,1.45,0.69c0.09,0.2,0.14,0.49,0.14,0.91v0.52l0,0.1l-1.19-0.05c-0.92,0-1.88,0.04-2.61,0.56
	c-0.61,0.44-0.9,1.06-0.9,1.96c0,1.48,0.97,2.41,2.52,2.41c1.49,0,2.06-0.82,2.07-0.83l0.18-0.27c0,0,0,0.82,0,0.97
	c0.17,0,2.07,0,2.24,0c0-0.19,0-4.94,0-4.94c0-0.68-0.02-1.39-0.2-1.87C50.89,23.65,49.9,23.17,48.24,23.17z M49.16,30.17
	l-0.05,0.03c-0.01,0.01-0.29,0.16-0.9,0.16c-0.52,0-1.39-0.17-1.39-1.31c0-0.21,0.03-0.73,0.35-1.02c0.29-0.28,0.67-0.4,1.21-0.4
	l0.69,0.02l0.09,0V30.17z"/>
<path fill="#1D1D1B" d="M65.22,23.35c-0.17,0-2.25,0-2.42,0c0,0.19,0,7.92,0,8.11c0.17,0,2.25,0,2.42,0
	C65.22,31.27,65.22,23.54,65.22,23.35z"/>
<path fill="#1D1D1B" d="M56.66,23.22c-2.25,0-3.76,1.75-3.76,4.35c0,2.56,1.2,4.02,3.28,4.02c1.61,0,2.17-0.91,2.18-0.92l0.18-0.31
	c0,0,0,0.95,0,1.1c0.17,0,2.17,0,2.34,0c0-0.19,0-12.12,0-12.31c-0.17,0-2.25,0-2.42,0c0,0.19,0,4.33,0,4.33l0,0.19l-0.16-0.12
	C58.29,23.55,57.83,23.22,56.66,23.22z M58.45,24.52v5.36l-0.05,0.03c-0.02,0.01-0.4,0.22-1.03,0.22c-1.26,0-1.99-1-1.99-2.75
	c0-1.98,0.76-2.99,2.26-2.99c0.47,0,0.73,0.1,0.75,0.1L58.45,24.52z"/>
<path fill="#1D1D1B" d="M72.04,23.17c-1.71,0-2.37,0.98-2.37,0.99l-0.18,0.28c0,0,0-0.94,0-1.09c-0.17,0-2.17,0-2.34,0
	c0,0.19,0,7.92,0,8.11c0.17,0,2.25,0,2.42,0c0-0.19,0-6.57,0-6.57l0.05-0.03c0.02-0.01,0.45-0.24,1.11-0.24c0.81,0,1.3,0.34,1.45,1
	c0.06,0.3,0.07,0.8,0.07,1c0,0,0,4.64,0,4.83c0.17,0,2.26,0,2.44,0c0-0.19,0-4.93,0-4.93c0-0.36,0-1.02-0.13-1.6
	C74.44,24.4,73.96,23.17,72.04,23.17z"/>
<path fill="#1D1D1B" d="M79.43,23.18c-2.38,0-3.44,1.37-3.44,2.73c0,2.12,1.81,2.41,1.89,2.42l0.36,0.05l-0.34,0.13
	c-0.05,0.02-1.21,0.49-1.21,1.69c0,0.83,0.61,1.11,0.64,1.12l0.33,0.15l-0.36,0.04c-0.07,0.01-1.72,0.19-1.72,1.65
	c0,1.69,2.13,1.94,3.39,1.94c1.01,0,1.85-0.11,2.55-0.35c2.06-0.69,2.37-2.09,2.37-2.86c0-1.79-1.38-2.02-2.58-2.02l-1.14,0.02
	l-0.65,0.01c-0.33,0-0.95,0-0.95-0.71c0-0.39,0.23-0.61,0.24-0.62l0.04-0.03l0.79,0.05c2.11,0,3.33-0.94,3.33-2.57
	c0-0.83-0.47-1.3-0.47-1.3l-0.17-0.17c0,0,1.49,0,1.66,0c0-0.16,0-1.04,0-1.19c-0.18,0-3.21,0-3.21,0
	C80.52,23.29,80.04,23.18,79.43,23.18z M80.11,31.67c0.75,0,1.29,0,1.58,0.29c0.13,0.13,0.2,0.31,0.2,0.55
	c0,0.64-0.4,1.41-2.33,1.41c-0.93,0-1.99-0.14-1.99-1.21c0-0.74,0.65-1.02,0.67-1.03l0.02-0.01H80.11z M80.21,27.45L80.21,27.45
	c-0.2,0.12-0.43,0.18-0.68,0.18c-0.82,0-1.28-0.61-1.28-1.71c0-0.55,0.07-1.22,0.58-1.55c0.2-0.12,0.45-0.19,0.7-0.19
	c0.82,0,1.28,0.6,1.28,1.7C80.8,26.43,80.73,27.12,80.21,27.45z"/>
<path fill="#1D1D1B" d="M22.16,22.9l-0.06-12.6c-0.02-0.39-0.34-0.7-0.74-0.76c-0.05-0.01-1.92-0.2-8.37-0.2H12.9
	c-5.83,0-7.94,0.11-8.37,0.2C4.15,9.6,3.8,9.94,3.78,10.33c0,0.04-0.05,12.59-0.05,12.59c0,0.06-0.05,0.88,0.28,1.95
	c0.37,1.24,1.22,2.87,3.19,4.42c3.28,2.57,5.56,3.55,5.65,3.59c0.05,0.02,0.07,0.03,0.09,0.03c0.02,0,0.03,0,0.1-0.03
	c0.09-0.04,2.35-1.05,5.63-3.59c1.98-1.53,2.84-3.15,3.21-4.4C22.21,23.8,22.17,22.97,22.16,22.9z M4.28,10.38
	c0.03-0.18,0.15-0.33,0.36-0.36c0.44-0.08,2.47-0.19,8.27-0.19H13c6.38,0,8.2,0.19,8.21,0.19c0.31,0.05,0.39,0.29,0.39,0.38
	l0.04,9.24c-0.84-0.04-3.24-0.11-8.64-0.11c-5.51,0-7.95,0.08-8.77,0.12C4.26,15.92,4.28,10.38,4.28,10.38z M20.12,27.13
	c-0.1-0.18-0.28-0.29-0.48-0.29c-0.25,0-0.46,0.17-0.53,0.41c-0.08-0.24-0.28-0.41-0.53-0.41c-0.25,0-0.46,0.17-0.53,0.41
	c-0.08-0.24-0.28-0.41-0.53-0.41c-0.25,0-0.46,0.17-0.53,0.41c-0.08-0.24-0.28-0.41-0.53-0.41c-0.25,0-0.46,0.17-0.53,0.41
	c-0.08-0.24-0.28-0.41-0.53-0.41c-0.31,0-0.56,0.25-0.56,0.56c0,0.25,0.17,0.46,0.41,0.53c-0.24,0.08-0.41,0.28-0.41,0.53
	c0,0.25,0.17,0.46,0.41,0.53c-0.24,0.08-0.41,0.28-0.41,0.53c0,0.25,0.17,0.46,0.41,0.53c-0.24,0.08-0.41,0.28-0.41,0.53
	c0,0.24,0.15,0.44,0.37,0.52c-0.14,0.1-0.23,0.16-0.23,0.16c-1.12,0.69-1.86,1.03-2.05,1.12c-0.2-0.09-0.92-0.42-2.03-1.09
	c0,0-0.1-0.07-0.26-0.18c0.23-0.07,0.39-0.29,0.39-0.53c0-0.25-0.17-0.46-0.41-0.53c0.24-0.08,0.41-0.28,0.41-0.53
	c0-0.25-0.17-0.46-0.41-0.53c0.24-0.08,0.41-0.28,0.41-0.53c0-0.25-0.17-0.46-0.41-0.53c0.24-0.08,0.41-0.28,0.41-0.53
	c0-0.31-0.25-0.56-0.56-0.56c-0.25,0-0.46,0.17-0.53,0.41c-0.08-0.24-0.28-0.41-0.53-0.41c-0.25,0-0.46,0.17-0.53,0.41
	c-0.08-0.24-0.28-0.41-0.53-0.41c-0.25,0-0.46,0.17-0.53,0.41c-0.08-0.24-0.28-0.41-0.53-0.41c-0.25,0-0.46,0.17-0.53,0.41
	c-0.08-0.24-0.28-0.41-0.53-0.41c-0.2,0-0.39,0.11-0.48,0.29c-1.15-1.53-1.48-2.96-1.55-3.69v-0.03l0.01,0
	C4.45,23.37,4.61,23.2,4.67,23c0.07,0.25,0.28,0.43,0.53,0.43c0.25,0,0.46-0.17,0.53-0.41c0.08,0.24,0.28,0.41,0.53,0.41
	c0.25,0,0.46-0.17,0.53-0.41c0.08,0.24,0.28,0.41,0.53,0.41c0.25,0,0.46-0.17,0.53-0.41c0.08,0.24,0.28,0.41,0.53,0.41
	c0.25,0,0.46-0.17,0.53-0.41c0.08,0.24,0.28,0.41,0.53,0.41c0.25,0,0.46-0.17,0.53-0.41c0.08,0.24,0.28,0.41,0.53,0.41
	c0.31,0,0.56-0.25,0.56-0.56c0-0.25-0.17-0.46-0.41-0.53c0.24-0.08,0.41-0.28,0.41-0.53c0-0.25-0.17-0.46-0.41-0.53
	c0.24-0.08,0.41-0.28,0.41-0.53c0-0.25-0.18-0.46-0.42-0.53c0.15-0.05,0.28-0.13,0.35-0.26l0.02-0.03c0.92-0.01,1.64-0.02,1.9-0.02
	c0.28,0,1.06,0.01,2.04,0.02l0.02,0.03c0.07,0.13,0.2,0.22,0.35,0.26c-0.25,0.08-0.41,0.28-0.41,0.53c0,0.25,0.17,0.46,0.41,0.53
	c-0.24,0.08-0.41,0.28-0.41,0.53c0,0.25,0.17,0.46,0.41,0.53c-0.24,0.08-0.41,0.28-0.41,0.53c0,0.31,0.25,0.56,0.56,0.56
	c0.25,0,0.46-0.17,0.53-0.41c0.08,0.24,0.28,0.41,0.53,0.41c0.25,0,0.46-0.17,0.53-0.41c0.08,0.24,0.28,0.41,0.53,0.41
	c0.25,0,0.46-0.17,0.53-0.41c0.08,0.24,0.28,0.41,0.53,0.41c0.25,0,0.46-0.17,0.53-0.41c0.08,0.24,0.28,0.41,0.53,0.41
	c0.25,0,0.46-0.17,0.53-0.41c0.08,0.24,0.28,0.41,0.53,0.41c0.26,0,0.47-0.18,0.53-0.43c0.06,0.21,0.21,0.37,0.41,0.41l0,0v0.02
	C21.57,24.17,21.27,25.61,20.12,27.13z"/>
<g>
	<path fill="#1D1D1B" d="M14.77,23.68c-0.05-0.28-0.25-0.55-0.49-0.73l-0.01-0.01l0,0c-0.24-0.17-0.56-0.28-0.84-0.24
		c-0.29-0.24-0.44-0.9-0.47-0.9c-0.04,0-0.17,0.66-0.47,0.9c-0.28-0.04-0.6,0.06-0.85,0.24c0,0,0,0,0,0
		c-0.24,0.18-0.44,0.45-0.5,0.72c-0.32,0.21-0.99,0.14-1,0.17c-0.01,0.04,0.58,0.37,0.71,0.73c-0.07,0.14-0.1,0.3-0.1,0.46
		c0,0.14,0.02,0.29,0.07,0.42c0,0,0,0.01,0,0.01c0.1,0.29,0.29,0.56,0.54,0.69c0.1,0.36-0.18,0.98-0.14,1
		c0.03,0.02,0.53-0.43,0.91-0.45c0.2,0.19,0.52,0.3,0.82,0.3h0.01c0.31,0,0.63-0.11,0.83-0.31c0.38,0.02,0.88,0.47,0.91,0.45
		c0.03-0.02-0.25-0.63-0.15-1c0.25-0.13,0.44-0.4,0.54-0.69l0-0.01c0.04-0.14,0.07-0.28,0.07-0.42c0-0.16-0.03-0.33-0.1-0.46
		c0.14-0.35,0.72-0.69,0.7-0.72C15.75,23.81,15.09,23.88,14.77,23.68z M14.89,25.39L14.89,25.39c-0.09,0.25-0.24,0.47-0.43,0.57
		c-0.09,0.05-0.19,0.08-0.29,0.06c-0.09-0.01-0.21-0.07-0.27-0.12c-0.01-0.01-0.02-0.02-0.03-0.02c-0.05-0.07-0.15-0.25-0.2-0.33
		c-0.07-0.1-0.19-0.38-0.35-0.26c-0.17,0.12,0.06,0.32,0.14,0.42c0.06,0.07,0.2,0.22,0.25,0.29c0.01,0.01,0.01,0.02,0.02,0.03
		c0.03,0.07,0.05,0.2,0.03,0.29c-0.02,0.09-0.07,0.17-0.14,0.24c-0.16,0.15-0.42,0.24-0.68,0.24h0c-0.26,0-0.52-0.09-0.67-0.23
		c-0.07-0.07-0.13-0.15-0.15-0.25c-0.01-0.09,0-0.22,0.03-0.29c0-0.01,0.01-0.03,0.02-0.04c0.05-0.07,0.2-0.22,0.25-0.29
		c0.07-0.1,0.3-0.3,0.14-0.41c-0.17-0.12-0.28,0.16-0.35,0.26c-0.05,0.08-0.15,0.26-0.2,0.33c-0.01,0.01-0.02,0.02-0.03,0.03
		c-0.06,0.05-0.18,0.11-0.26,0.12c-0.09,0.01-0.19-0.01-0.28-0.06c-0.19-0.1-0.35-0.32-0.43-0.57l0-0.01
		c-0.08-0.26-0.08-0.53,0.02-0.73c0.04-0.09,0.1-0.16,0.18-0.2c0.07-0.04,0.2-0.06,0.28-0.06c0.02,0,0.04,0,0.05,0
		c0.09,0.03,0.27,0.12,0.36,0.15c0.12,0.04,0.37,0.2,0.44,0c0.06-0.19-0.24-0.22-0.36-0.26c-0.09-0.03-0.29-0.06-0.38-0.09
		c-0.01,0-0.02-0.01-0.04-0.02c-0.07-0.04-0.16-0.14-0.19-0.21c-0.04-0.09-0.05-0.19-0.03-0.29c0.04-0.21,0.2-0.43,0.41-0.58l0,0
		c0.22-0.15,0.48-0.23,0.69-0.21c0.1,0.01,0.19,0.05,0.25,0.11c0.06,0.06,0.12,0.17,0.14,0.25c0,0.02,0.01,0.03,0.01,0.04
		c0,0.09-0.03,0.29-0.03,0.38c0,0.12-0.07,0.42,0.13,0.42s0.14-0.29,0.13-0.42c0-0.09-0.03-0.29-0.03-0.38c0-0.01,0-0.03,0.01-0.04
		c0.02-0.08,0.08-0.19,0.14-0.25c0.07-0.07,0.16-0.1,0.26-0.11c0.21-0.03,0.47,0.05,0.68,0.21l0.01,0c0.21,0.16,0.37,0.37,0.41,0.58
		c0.02,0.1,0.02,0.2-0.03,0.29c-0.04,0.08-0.13,0.18-0.2,0.22c-0.01,0.01-0.02,0.02-0.03,0.02c-0.09,0.03-0.29,0.06-0.38,0.09
		c-0.12,0.03-0.42,0.06-0.36,0.26c0.06,0.19,0.32,0.04,0.44,0c0.09-0.03,0.27-0.12,0.36-0.15c0.01,0,0.02,0,0.04,0
		c0.08-0.01,0.21,0.02,0.29,0.06c0.08,0.04,0.14,0.12,0.19,0.21C14.97,24.86,14.97,25.14,14.89,25.39z"/>
	<polygon fill="#1D1D1B" points="14.28,22.94 14.28,22.95 14.28,22.95 	"/>
</g>
<circle fill="#1D1D1B" cx="12.95" cy="24.76" r="0.45"/>
<g>
	<path fill="#1D1D1B" d="M9.54,14.51L9.54,14.51c-0.07-0.05-0.23-0.18-0.28-0.22c-0.03-0.03-0.1-0.11-0.2-0.23
		c0,0-0.01-0.01-0.01-0.01c0,0,0.32-0.82,0.32-0.82c0.02-0.06,0.03-0.12,0.03-0.16c0-0.05-0.02-0.11-0.05-0.15
		c-0.05-0.06-0.12-0.1-0.22-0.1c0,0-0.98,0-1.03,0c-0.01-0.04-0.11-0.19-0.13-0.23c-0.1-0.19-0.22-0.27-0.43-0.27
		c-0.21,0-0.33,0.07-0.44,0.27C7.1,12.62,7,12.77,6.99,12.81c-0.01,0-1.02,0-1.02,0c-0.1,0-0.17,0.04-0.22,0.1
		c-0.03,0.04-0.05,0.1-0.05,0.15c0,0.05,0.01,0.1,0.03,0.16c0,0,0.31,0.81,0.32,0.83c0,0-0.01,0.01-0.01,0.01
		c-0.1,0.12-0.17,0.2-0.2,0.23c-0.05,0.05-0.21,0.18-0.28,0.22c-0.28,0.18-0.43,0.4-0.43,0.62l0,0.01c0.01,0.21,0.14,0.43,0.21,0.56
		l0.05,0.08c0.04,0.1,0.23,0.48,0.33,0.6c0.09,0.11,0.59,0.56,0.75,0.64c0.13,0.07,0.33,0.11,0.43,0.13c0,0,0.05,0.01,0.05,0.01
		c0.07,0.02,0.44,0.15,0.59,0.15c0.15,0,0.52-0.12,0.59-0.15c0,0,0.05-0.01,0.05-0.01c0.1-0.02,0.3-0.06,0.43-0.13
		c0.16-0.09,0.66-0.53,0.75-0.64c0.1-0.12,0.28-0.51,0.33-0.6l0.05-0.08c0.08-0.13,0.21-0.35,0.21-0.56c0,0,0-0.01,0-0.01
		C9.97,14.91,9.82,14.69,9.54,14.51z M8.62,14.73c0,0.11,0.72,0.99,0.78,1.06C9.4,15.81,9.33,16,9.27,16.1
		c-0.05,0.09-0.15,0.17-0.18,0.2c-0.04-0.07-0.73-1.17-0.8-1.14c0,0-0.01,0.01-0.01,0.01c0,0,0,0.01,0,0.01
		c0,0.08,0.2,0.51,0.58,1.28c0,0,0.01,0.02,0.01,0.02c-0.03,0.03-0.24,0.22-0.32,0.26c-0.08,0.05-0.18,0.07-0.25,0.09
		c-0.02-0.07-0.39-1.44-0.46-1.44h0L7.84,15.4c0,0.01-0.01,0.02-0.01,0.08c0,0.3,0.13,1.38,0.14,1.44c-0.01,0-0.07,0.02-0.07,0.02
		l-0.13,0.03c0,0-0.06,0.02-0.06,0.02c-0.05,0.02-0.1,0.03-0.16,0.04c-0.05,0-0.1-0.02-0.15-0.04c0,0-0.06-0.02-0.06-0.02
		c0,0-0.14-0.03-0.14-0.03s-0.05-0.01-0.07-0.02c0.01-0.06,0.14-1.14,0.14-1.44c0-0.06,0-0.07-0.01-0.08l0,0l-0.01,0
		c-0.07,0-0.44,1.37-0.46,1.44c-0.07-0.02-0.17-0.05-0.25-0.09c-0.08-0.04-0.3-0.25-0.32-0.26c0-0.01,0.02-0.03,0.02-0.03
		c0.26-0.53,0.58-1.17,0.58-1.27l0-0.01c0,0-0.01-0.01-0.01-0.01c-0.08-0.03-0.76,1.07-0.81,1.14c-0.03-0.02-0.13-0.11-0.18-0.2
		c-0.06-0.1-0.13-0.3-0.13-0.31c0.04-0.04,0.78-0.94,0.78-1.05c0,0,0-0.01,0-0.01c0,0-0.01-0.01-0.01-0.01
		c-0.09,0-0.83,0.74-0.89,0.8c-0.01-0.01-0.04-0.07-0.04-0.07l-0.06-0.12c-0.02-0.05-0.03-0.1-0.03-0.16l0-0.05
		c0.01-0.12,0.13-0.27,0.35-0.42c0.09-0.06,0.18-0.15,0.24-0.21c0,0,0.05-0.04,0.05-0.04c0.15-0.13,1.11-1.42,1.29-1.74
		c0.05-0.09,0.12-0.1,0.18-0.1c0.06,0,0.12,0.01,0.17,0.1c0.18,0.32,1.14,1.61,1.29,1.74l0.04,0.04c0.06,0.06,0.16,0.15,0.24,0.21
		c0.13,0.09,0.34,0.26,0.35,0.42l0,0.05c0,0.06-0.01,0.11-0.03,0.16l-0.06,0.11c0,0.01-0.03,0.06-0.04,0.08
		c-0.06-0.06-0.8-0.8-0.89-0.8c0,0-0.01,0-0.01,0C8.62,14.72,8.62,14.73,8.62,14.73z M8.25,13.05c0.02,0,0.8,0,0.8,0l0,0
		c0.06,0,0.08,0.01,0.08,0.01l0.01,0.03c0,0.03-0.01,0.07-0.02,0.07c0,0-0.24,0.62-0.27,0.71C8.85,13.86,8.31,13.13,8.25,13.05z
		 M6.86,13.05c-0.02,0.02-0.6,0.81-0.61,0.82c-0.01-0.02-0.27-0.71-0.27-0.71c0,0-0.02-0.04-0.02-0.07l0.01-0.03
		c0-0.01,0.02-0.02,0.08-0.01C6.06,13.05,6.84,13.05,6.86,13.05z"/>
	<path fill="#1D1D1B" d="M14.94,14.44L14.94,14.44c-0.07-0.05-0.23-0.18-0.28-0.23c-0.03-0.03-0.1-0.11-0.2-0.23l-0.01-0.01
		c0,0,0.32-0.82,0.32-0.82c0.02-0.06,0.03-0.12,0.03-0.16c0-0.05-0.02-0.11-0.05-0.15c-0.05-0.06-0.12-0.1-0.22-0.1
		c0,0-0.98,0-1.03,0c-0.01-0.04-0.1-0.18-0.13-0.23c-0.1-0.19-0.22-0.27-0.43-0.27c-0.21,0-0.33,0.07-0.43,0.27
		c-0.03,0.04-0.12,0.19-0.13,0.22c-0.01,0-1.02,0-1.02,0c-0.1,0-0.17,0.04-0.22,0.1c-0.03,0.04-0.05,0.1-0.05,0.15
		c0,0.05,0.01,0.1,0.03,0.16c0,0,0.31,0.81,0.32,0.83c0,0-0.01,0.01-0.01,0.01c-0.1,0.12-0.17,0.2-0.2,0.23
		c-0.05,0.05-0.2,0.18-0.28,0.22c-0.28,0.18-0.43,0.4-0.43,0.62v0.01c0.01,0.21,0.14,0.43,0.21,0.56l0.05,0.08
		c0.04,0.1,0.23,0.48,0.32,0.6c0.09,0.11,0.59,0.56,0.75,0.64c0.13,0.07,0.33,0.11,0.43,0.13c0,0,0.05,0.01,0.05,0.01
		c0.04,0.01,0.43,0.15,0.59,0.15c0.15,0,0.52-0.12,0.59-0.15c0,0,0.05-0.01,0.05-0.01c0.1-0.02,0.3-0.06,0.43-0.13
		c0.16-0.09,0.66-0.53,0.75-0.64c0.1-0.12,0.28-0.51,0.33-0.6c0,0,0.05-0.08,0.05-0.08c0.08-0.13,0.21-0.35,0.21-0.56v-0.01
		C15.37,14.84,15.22,14.62,14.94,14.44z M14.02,14.66c0,0.11,0.72,0.99,0.78,1.06c-0.01,0.02-0.07,0.21-0.13,0.31
		c-0.05,0.09-0.15,0.17-0.18,0.19c-0.04-0.07-0.73-1.17-0.8-1.14c0,0-0.01,0.01-0.01,0.01c0,0,0,0.01,0,0.01
		c0,0.08,0.2,0.51,0.58,1.28c0,0,0.01,0.02,0.01,0.02c-0.03,0.03-0.24,0.22-0.32,0.26c-0.08,0.05-0.18,0.07-0.25,0.09
		c-0.02-0.07-0.39-1.44-0.46-1.44h0l-0.01,0.01c0,0.01-0.01,0.02-0.01,0.08c0,0.3,0.13,1.38,0.14,1.44c-0.01,0-0.07,0.02-0.07,0.02
		l-0.13,0.03c0,0-0.06,0.02-0.06,0.02c-0.05,0.02-0.1,0.03-0.16,0.04c-0.05,0-0.1-0.02-0.15-0.04c0,0-0.06-0.02-0.06-0.02
		c0,0-0.14-0.03-0.14-0.03s-0.05-0.01-0.07-0.02c0.01-0.06,0.14-1.14,0.14-1.44c0-0.06,0-0.07-0.01-0.08l0,0l-0.01,0
		c-0.07,0-0.44,1.37-0.46,1.44c-0.07-0.02-0.17-0.05-0.25-0.09c-0.08-0.04-0.27-0.22-0.32-0.26c0-0.01,0.02-0.03,0.02-0.03
		c0.26-0.53,0.58-1.17,0.58-1.27l0-0.01c0,0-0.01-0.01-0.01-0.01c-0.08-0.03-0.76,1.07-0.81,1.14c-0.03-0.02-0.13-0.11-0.18-0.19
		c-0.06-0.1-0.13-0.3-0.13-0.31c0.04-0.04,0.78-0.94,0.78-1.05c0,0,0-0.01,0-0.01c0,0-0.01-0.01-0.01-0.01
		c-0.09,0-0.83,0.74-0.89,0.8c-0.01-0.01-0.04-0.07-0.04-0.07l-0.06-0.12c-0.02-0.05-0.03-0.1-0.03-0.16l0-0.06
		c0.01-0.12,0.13-0.27,0.35-0.42c0.09-0.06,0.18-0.15,0.24-0.21c0,0,0.05-0.04,0.05-0.04c0.15-0.13,1.11-1.42,1.29-1.74
		c0.05-0.09,0.12-0.1,0.18-0.1c0.05,0,0.12,0.01,0.17,0.1c0.18,0.32,1.14,1.61,1.29,1.74l0.04,0.04c0.06,0.06,0.16,0.15,0.24,0.21
		c0.13,0.09,0.34,0.26,0.35,0.42l0,0.06c0,0.06-0.01,0.11-0.03,0.16l-0.06,0.12c0,0-0.03,0.05-0.04,0.07
		c-0.06-0.06-0.8-0.8-0.89-0.8c0,0-0.01,0-0.01,0C14.03,14.65,14.02,14.66,14.02,14.66z M13.65,12.98c0.03,0,0.8,0,0.8,0l0,0
		c0.06,0,0.08,0.01,0.08,0.01c0,0,0.01,0.03,0.01,0.03l-0.02,0.07c0,0-0.24,0.62-0.27,0.71C14.25,13.79,13.71,13.06,13.65,12.98z
		 M12.26,12.98c-0.02,0.02-0.6,0.8-0.61,0.82c-0.01-0.02-0.27-0.71-0.27-0.71c0,0-0.02-0.04-0.02-0.07L11.38,13
		c0-0.01,0.02-0.02,0.08-0.01C11.46,12.98,12.24,12.98,12.26,12.98z"/>
	<path fill="#1D1D1B" d="M20.31,14.51L20.31,14.51c-0.07-0.05-0.23-0.18-0.28-0.22c-0.03-0.03-0.1-0.11-0.2-0.23
		c0,0-0.01-0.01-0.01-0.01c0,0,0.32-0.82,0.32-0.82c0.02-0.06,0.03-0.12,0.03-0.16c0-0.05-0.02-0.11-0.05-0.15
		c-0.05-0.06-0.12-0.1-0.22-0.1c0,0-0.98,0-1.03,0c-0.01-0.04-0.1-0.18-0.13-0.23c-0.1-0.19-0.22-0.27-0.43-0.27
		c-0.21,0-0.33,0.07-0.44,0.27c-0.03,0.04-0.12,0.19-0.13,0.22c-0.01,0-1.03,0-1.03,0c-0.1,0-0.17,0.04-0.22,0.1
		c-0.03,0.04-0.05,0.1-0.05,0.15c0,0.05,0.01,0.1,0.03,0.16c0,0,0.31,0.81,0.32,0.83c0,0-0.01,0.01-0.01,0.01
		c-0.1,0.12-0.17,0.2-0.2,0.23c-0.05,0.05-0.21,0.18-0.28,0.22c-0.28,0.18-0.43,0.4-0.43,0.62l0,0.01c0.01,0.21,0.14,0.43,0.21,0.56
		l0.05,0.08c0.04,0.1,0.23,0.48,0.33,0.6c0.09,0.11,0.59,0.56,0.75,0.64c0.13,0.07,0.33,0.11,0.43,0.13c0,0,0.05,0.01,0.05,0.01
		c0.04,0.01,0.43,0.15,0.59,0.15c0.15,0,0.52-0.12,0.59-0.15c0,0,0.05-0.01,0.05-0.01c0.1-0.02,0.3-0.06,0.43-0.13
		c0.16-0.09,0.66-0.53,0.75-0.64c0.1-0.12,0.28-0.51,0.33-0.6l0.05-0.08c0.08-0.13,0.21-0.35,0.21-0.56c0,0,0-0.01,0-0.01
		C20.74,14.91,20.59,14.69,20.31,14.51z M19.39,14.73c0,0.11,0.72,0.99,0.78,1.06c-0.01,0.02-0.07,0.21-0.13,0.31
		c-0.05,0.09-0.15,0.17-0.18,0.2c-0.04-0.07-0.73-1.17-0.8-1.14c0,0-0.01,0.01-0.01,0.01c0,0,0,0.01,0,0.01
		c0,0.08,0.2,0.51,0.58,1.28c0,0,0.01,0.02,0.01,0.02c-0.03,0.03-0.24,0.22-0.32,0.26c-0.08,0.05-0.18,0.07-0.25,0.09
		c-0.02-0.07-0.39-1.44-0.46-1.44h0l-0.01,0.01c0,0.01-0.01,0.02-0.01,0.08c0,0.3,0.13,1.38,0.14,1.44c-0.01,0-0.07,0.02-0.07,0.02
		l-0.13,0.03l-0.06,0.02c-0.05,0.02-0.1,0.03-0.16,0.04c-0.05,0-0.11-0.02-0.16-0.04c0,0-0.06-0.02-0.06-0.02
		c0,0-0.14-0.03-0.14-0.03s-0.05-0.01-0.07-0.02c0.01-0.06,0.14-1.14,0.14-1.44c0-0.06-0.01-0.07-0.01-0.08l0,0l-0.01,0
		c-0.07,0-0.44,1.37-0.46,1.44c-0.07-0.02-0.17-0.05-0.25-0.09c-0.08-0.04-0.27-0.22-0.32-0.26c0-0.01,0.02-0.03,0.02-0.03
		c0.26-0.53,0.58-1.17,0.58-1.27l0-0.01c0,0-0.01-0.01-0.01-0.01c-0.08-0.03-0.76,1.07-0.81,1.14c-0.03-0.02-0.13-0.11-0.18-0.2
		c-0.06-0.1-0.13-0.3-0.13-0.31c0.04-0.04,0.78-0.94,0.78-1.05c0,0,0-0.01,0-0.01c0,0-0.01-0.01-0.01-0.01
		c-0.09,0-0.83,0.74-0.89,0.8c-0.01-0.01-0.04-0.07-0.04-0.07l-0.06-0.12c-0.02-0.05-0.03-0.1-0.03-0.16l0-0.05
		c0.01-0.12,0.13-0.27,0.35-0.42c0.09-0.06,0.18-0.15,0.24-0.21c0,0,0.05-0.04,0.05-0.04c0.15-0.13,1.11-1.42,1.29-1.74
		c0.05-0.09,0.12-0.1,0.18-0.1c0.06,0,0.12,0.01,0.17,0.1c0.18,0.32,1.14,1.61,1.29,1.74l0.04,0.04c0.06,0.06,0.16,0.15,0.24,0.21
		c0.13,0.09,0.34,0.26,0.35,0.42l0,0.05c0,0.06-0.01,0.11-0.03,0.16l-0.06,0.12c0,0-0.03,0.05-0.04,0.07
		c-0.06-0.06-0.8-0.8-0.89-0.8c0,0-0.01,0-0.01,0C19.4,14.72,19.39,14.73,19.39,14.73z M19.03,13.05c0.02,0,0.8,0,0.8,0l0.01,0
		c0.06,0,0.08,0.01,0.08,0.01l0.01,0.03l-0.02,0.07c0,0-0.24,0.62-0.27,0.71C19.62,13.86,19.08,13.13,19.03,13.05z M17.63,13.05
		c-0.02,0.02-0.6,0.81-0.61,0.82c-0.01-0.02-0.27-0.71-0.27-0.71c0,0-0.02-0.04-0.02-0.07l0.01-0.03c0-0.01,0.02-0.02,0.08-0.01
		C16.83,13.05,17.61,13.05,17.63,13.05z"/>
</g>
<g>
</g>
<g>
</g>
<g>
</g>
<g>
</g>
<g>
</g>
<g>
</g>
</svg>
