<?xml version="1.0" encoding="utf-8"?>
<!-- Generator: Adobe Illustrator 17.1.0, SVG Export Plug-In . SVG Version: 6.00 Build 0)  -->
<!DOCTYPE svg PUBLIC "-//W3C//DTD SVG 1.1//EN" "http://www.w3.org/Graphics/SVG/1.1/DTD/svg11.dtd">
<svg version="1.1" id="Layer_1" xmlns="http://www.w3.org/2000/svg" xmlns:xlink="http://www.w3.org/1999/xlink" x="0px" y="0px"
	 viewBox="0 0 88 44" enable-background="new 0 0 88 44" xml:space="preserve">
<g>
	<path d="M7.06,13.03H6.1l2.2,12.63h0.04l2.21-12.63H9.36v-0.35h2.11v0.35h-0.71L7.64,30.79H6.51L3.36,13.03H2.62v-0.35h4.45V13.03z
		"/>
	<path d="M14.59,30.34h1.02l-0.95-5.45H12.2l-0.95,5.45h1.26v0.35h-2.2v-0.35h0.72l3.12-17.88h1.08l3.11,17.88h0.75v0.35h-4.5V30.34
		z M12.25,24.54h2.34l-1.16-6.65h-0.01L12.25,24.54z"/>
	<path d="M26.27,30.76l-5.31-17.33h-0.04v16.91h1.27v0.35h-2.56v-0.35h1.08V13.03h-1.08v-0.35h3.98l3.56,11.13h0.03V13.03h-1.16
		v-0.35h2.33v0.35H27.4v17.73H26.27z"/>
	<path d="M28.99,30.34h1.08V13.03h-1.08v-0.35h4.79v0.35h-1.09v17.31h1.09v0.35h-4.79V30.34z"/>
	<path d="M42.73,12.68v6.05h-0.17c-0.32-3.23-1.1-5.7-2.47-5.7h-0.21v17.31h1.12v0.35h-4.83v-0.35h1.12V13.03h-0.22
		c-1.36,0-2.16,2.43-2.45,5.7h-0.17v-6.05H42.73z"/>
	<path d="M51.86,13.03h-0.59l-2.27,8.65v8.65h1.1v0.35h-4.82v-0.35h1.1v-8.23l-2.43-9.08h-0.62v-0.35h4.34v0.35h-1l2.18,8.3
		l2.18-8.3h-1.22v-0.35h2.03V13.03z"/>
	<path d="M54.51,30.34h1.08V13.03h-1.08v-0.35H62v5.35h-0.17c-0.36-3.45-1.16-5-3.29-5h-0.33v8.55h0.29c1.27,0,1.71-1.1,1.99-3.5
		h0.15v7.13H60.5c-0.27-2.48-0.69-3.3-1.99-3.3h-0.29v8.43h1.39v0.35h-5.09V30.34z"/>
	<path d="M65.76,30.34h1.02l-0.95-5.45h-2.45l-0.95,5.45h1.26v0.35h-2.2v-0.35h0.72l3.12-17.88h1.08l3.11,17.88h0.75v0.35h-4.5
		V30.34z M63.42,24.54h2.34l-1.16-6.65h-0.01L63.42,24.54z"/>
	<path d="M70.81,30.34h1.08V13.03h-1.08v-0.35h4.79v0.35h-1.09v17.31h1.09v0.35h-4.79V30.34z"/>
	<path d="M81.87,26.71c-0.01-1,0-1.88-0.03-2.9c-0.04-1.53-0.36-2.25-1.26-2.25h-0.66v8.78h1.2v0.35h-4.91v-0.35h1.09V13.03h-1.09
		v-0.35h4.12c2.11,0,3.79,1.5,3.79,4.65c0,2.33-1.17,3.53-2.63,3.93v0.05c1.93,0.33,2.85,1.78,2.94,4.45
		c0.03,1.1,0.04,1.93,0.08,3.1c0.03,0.85,0.17,1.25,0.46,1.25c0.19,0,0.35-0.2,0.45-0.45l0.12,0.23c-0.22,0.55-0.66,0.9-1.4,0.9
		C82.7,30.79,81.9,29.29,81.87,26.71z M79.92,21.21h0.57c0.85,0,1.27-0.95,1.27-4v-0.25c0-2.75-0.44-3.93-1.5-3.93h-0.33V21.21z"/>
</g>
<g>
</g>
<g>
</g>
<g>
</g>
<g>
</g>
<g>
</g>
<g>
</g>
</svg>
