<?xml version="1.0" encoding="utf-8"?>
<!-- Generator: Adobe Illustrator 17.1.0, SVG Export Plug-In . SVG Version: 6.00 Build 0)  -->
<!DOCTYPE svg PUBLIC "-//W3C//DTD SVG 1.1//EN" "http://www.w3.org/Graphics/SVG/1.1/DTD/svg11.dtd">
<svg version="1.1" id="Layer_1" xmlns="http://www.w3.org/2000/svg" xmlns:xlink="http://www.w3.org/1999/xlink" x="0px" y="0px"
	 viewBox="0 0 64 64" enable-background="new 0 0 64 64" xml:space="preserve">
<g>
	<path fill="#E877B9" d="M32,59.62c-0.71,0-1.39-0.15-1.85-0.42l-20.78-12C8.4,46.64,7.52,45.12,7.52,44V20
		c0-1.12,0.88-2.64,1.85-3.2l20.78-12c0.46-0.27,1.13-0.42,1.85-0.42s1.39,0.15,1.85,0.42l20.79,12c0.97,0.56,1.85,2.08,1.85,3.2v24
		c0,1.12-0.88,2.64-1.85,3.2l-20.79,12C33.39,59.47,32.71,59.62,32,59.62z"/>
	<path fill="#E877B9" d="M32,5.88c0.57,0,0.96,0.14,1.1,0.22l20.78,12c0.5,0.29,1.1,1.32,1.1,1.9v24c0,0.58-0.6,1.61-1.1,1.9
		l-20.78,12c-0.14,0.08-0.53,0.22-1.1,0.22s-0.96-0.14-1.1-0.22l-20.78-12c-0.5-0.29-1.1-1.32-1.1-1.9V20c0-0.58,0.6-1.61,1.1-1.9
		l20.78-12C31.04,6.02,31.43,5.88,32,5.88 M32,2.88c-0.94,0-1.88,0.21-2.6,0.62l-20.78,12c-1.43,0.83-2.6,2.85-2.6,4.5v24
		c0,1.65,1.17,3.67,2.6,4.5l20.78,12c0.71,0.41,1.66,0.62,2.6,0.62s1.88-0.21,2.6-0.62l20.78-12c1.43-0.83,2.6-2.85,2.6-4.5V20
		c0-1.65-1.17-3.67-2.6-4.5L34.6,3.5C33.88,3.09,32.94,2.88,32,2.88L32,2.88z"/>
</g>
<g>
</g>
<g>
</g>
<g>
</g>
<g>
</g>
<g>
</g>
<g>
</g>
</svg>
