<?xml version="1.0" encoding="utf-8"?>
<!-- Generator: Adobe Illustrator 17.1.0, SVG Export Plug-In . SVG Version: 6.00 Build 0)  -->
<!DOCTYPE svg PUBLIC "-//W3C//DTD SVG 1.1//EN" "http://www.w3.org/Graphics/SVG/1.1/DTD/svg11.dtd">
<svg version="1.1" id="Layer_1" xmlns="http://www.w3.org/2000/svg" xmlns:xlink="http://www.w3.org/1999/xlink" x="0px" y="0px"
	 viewBox="0 0 64 64" enable-background="new 0 0 64 64" xml:space="preserve">
<g>
	<path fill="#9D9D9C" d="M32,3.36c0.94,0,1.88,0.21,2.6,0.62l20.37,11.76c1.43,0.83,2.6,2.85,2.6,4.5v23.52
		c0,1.65-1.17,3.67-2.6,4.5L34.6,60.02c-0.71,0.41-1.66,0.62-2.6,0.62s-1.88-0.21-2.6-0.62L9.03,48.26c-1.43-0.83-2.6-2.85-2.6-4.5
		V20.24c0-1.65,1.17-3.67,2.6-4.5L29.4,3.98C30.12,3.56,31.06,3.36,32,3.36 M32,1.36c-1.33,0-2.61,0.31-3.6,0.89L8.03,14.01
		c-2.05,1.18-3.6,3.86-3.6,6.23v23.52c0,2.37,1.55,5.05,3.6,6.23L28.4,61.76c0.99,0.57,2.27,0.89,3.6,0.89
		c1.33,0,2.61-0.31,3.6-0.89l20.37-11.76c2.05-1.18,3.6-3.86,3.6-6.23V20.24c0-2.37-1.55-5.05-3.6-6.23L35.6,2.24
		C34.61,1.67,33.33,1.36,32,1.36L32,1.36z"/>
</g>
<g>
</g>
<g>
</g>
<g>
</g>
<g>
</g>
<g>
</g>
<g>
</g>
</svg>
