<?xml version="1.0" encoding="UTF-8" standalone="no"?>
<svg width="170px" height="80px" viewBox="0 0 170 80" version="1.1" xmlns="http://www.w3.org/2000/svg" xmlns:xlink="http://www.w3.org/1999/xlink">
    <!-- Generator: Sketch 3.7.2 (28276) - http://www.bohemiancoding.com/sketch -->
    <title>bigpoint</title>
    <desc>Created with Sketch.</desc>
    <defs>
        <linearGradient x1="0%" y1="0%" x2="101.999998%" y2="100.999999%" id="linearGradient-1">
            <stop stop-color="#3023AE" offset="0%"></stop>
            <stop stop-color="#C96DD8" offset="100%"></stop>
        </linearGradient>
    </defs>
    <g id="Page-1" stroke="none" stroke-width="1" fill="none" fill-rule="evenodd">
        <g id="bigpoint" fill="url(#linearGradient-1)">
            <path d="M55.6469523,43.2205679 C55.7239335,42.8599015 55.6841599,42.5704699 55.5250654,42.3529149 C55.3666123,42.1347181 55.1132158,42.0256198 54.7648757,42.0256198 L47.1123002,42.0256198 L46.5862618,44.470707 L54.2394789,44.470707 C54.999027,44.470707 55.467971,44.0535662 55.6469523,43.2205679 L55.6469523,43.2205679 Z M56.2897456,38.1455679 C56.3615947,37.8092882 56.3231041,37.5384675 56.1742737,37.3331058 C56.0254434,37.1277442 55.7893676,37.0250633 55.4660464,37.0250633 L48.1861883,37.0250633 L47.7050557,39.2647889 L54.9849138,39.2647889 C55.6944241,39.2647889 56.129368,38.8912874 56.2897456,38.1449261 L56.2897456,38.1455679 Z M44.6957312,33.9844272 L56.9229162,33.9844272 C59.9335237,33.9844272 61.1677894,35.2467597 60.6257132,37.7720664 C60.4679017,38.5055925 60.1779391,39.1024249 59.7551838,39.5625633 C59.3330701,40.0233436 58.7512203,40.38401 58.010276,40.6452043 C58.8403902,40.7818982 59.3946551,41.1117604 59.6743535,41.6335073 C59.954052,42.1565378 59.9899766,42.9028991 59.7814858,43.873233 C59.4992213,45.1792048 58.9500885,46.1180926 58.1302384,46.6905382 C57.3103883,47.2617004 56.1479718,47.5485649 54.6417058,47.5485649 L41.7813502,47.5485649 L44.6957312,33.9844272 L44.6957312,33.9844272 Z M63.8781701,33.9844272 L68.0223262,33.9844272 L65.1079452,47.5485649 L60.9637891,47.5485649 L63.8781701,33.9844272 L63.8781701,33.9844272 Z M82.1342682,37.9491908 C82.057287,37.730994 81.9046076,37.5705552 81.678796,37.4640239 C81.4523429,37.3581343 81.1431349,37.29075 80.7518137,37.2586622 C80.3604924,37.227858 79.8966805,37.2118141 79.361661,37.2118141 L76.9547146,37.2118141 C76.2824119,37.2118141 75.7249395,37.2439018 75.2822975,37.3055103 C74.8396554,37.3684024 74.4739946,37.4929029 74.185315,37.6790119 C73.8966354,37.8651209 73.6676162,38.1365833 73.498899,38.4908322 C73.3282573,38.845081 73.1826345,39.3084283 73.0594645,39.8808739 L72.6553131,41.7650672 C72.5398412,42.2996492 72.5058412,42.7315505 72.5526714,43.0614126 C72.6007847,43.390633 72.7387094,43.6492604 72.965804,43.8353694 C73.1922571,44.0214784 73.5110877,44.1498294 73.9184467,44.2178555 C74.3270887,44.2865233 74.8358063,44.3205363 75.4452411,44.3205363 L77.8348667,44.3205363 C78.3705277,44.3205363 78.8420377,44.2987166 79.2493967,44.2550773 C79.6567557,44.2120797 79.9999637,44.1369943 80.2770961,44.0317465 C80.55487,43.9258569 80.7761911,43.7795367 80.9404177,43.5927859 C81.1059273,43.4066769 81.2188331,43.1692275 81.2804181,42.8842882 C81.2932483,42.822038 81.3047955,42.7559372 81.3124936,42.6879111 C81.3214748,42.6198851 81.3278899,42.5480085 81.3317389,42.4735649 L76.4594687,42.4735649 L77.0483751,39.7307032 L86.2322356,39.7307032 L85.2738193,44.1909018 C85.1262719,44.874371 84.876083,45.4423244 84.5232523,45.8979706 C84.1717047,46.3510497 83.7053268,46.7117162 83.12476,46.9793281 C82.5448348,47.24694 81.8443056,47.4362578 81.0244555,47.5485649 C80.2033224,47.6602303 79.2519628,47.7154213 78.169735,47.7154213 L73.559201,47.7154213 C73.0241814,47.7154213 72.528294,47.7070785 72.0708972,47.6884676 C71.615425,47.6692149 71.1920282,47.6262173 70.8026315,47.5575495 C70.4125933,47.4895234 70.0648948,47.3868426 69.7582529,47.249507 C69.451611,47.1128131 69.1731955,46.9324799 68.922365,46.7091491 C68.4463644,46.261204 68.1576848,45.7208461 68.0576092,45.0855085 C67.9568921,44.4514544 68.0062884,43.6672295 68.2077226,42.7347592 L69.0012708,39.0414581 C69.2213088,38.0210674 69.5176865,37.175234 69.89297,36.5039581 C70.2669705,35.8326822 70.7551598,35.2974584 71.3568964,34.8995701 C71.959916,34.5016819 72.681615,34.2218767 73.5252009,34.0601544 C74.3694284,33.898432 75.3695428,33.8175709 76.5274688,33.8175709 L81.1559651,33.8175709 C82.3504572,33.8175709 83.344798,33.8676278 84.1389877,33.9670998 C84.9318943,34.0665719 85.536197,34.3091554 85.9512541,34.6948502 C86.3149904,35.03113 86.5350284,35.4790751 86.6145757,36.0386856 C86.6934814,36.5982961 86.6447267,37.2888247 86.4683113,38.1096296 L86.3881226,38.4831311 C86.3611791,38.6076316 86.3271791,38.7385497 86.2854809,38.8746018 L82.1220795,38.8746018 C82.211891,38.4638785 82.211891,38.1686711 82.1349097,37.9517578 L82.1342682,37.9491908 Z M92.3920168,40.7940916 L98.4959867,40.7940916 C99.081044,40.7940916 99.5063653,40.6541889 99.772592,40.3743837 C100.036894,40.0945784 100.242178,39.6190378 100.386517,38.9471201 C100.503914,38.3990612 100.475046,37.9973224 100.299272,37.7431874 C100.123498,37.4884106 99.7681015,37.3607013 99.2330819,37.3607013 L93.1291121,37.3607013 L92.3913753,40.7940916 L92.3920168,40.7940916 Z M102.155803,34.0960926 C102.725464,34.171178 103.203389,34.320707 103.590861,34.5440378 C104.241994,34.9290909 104.632674,35.4861344 104.7629,36.2138848 C104.892485,36.9416352 104.8309,37.8952834 104.576862,39.0780382 C104.381843,39.9861218 104.143201,40.7632873 103.860937,41.4101765 C103.578672,42.0570658 103.236106,42.5845885 102.83003,42.9953119 C102.424595,43.4060352 101.940897,43.7050931 101.377651,43.8918439 C100.814405,44.0779529 100.160064,44.1716491 99.4133463,44.1716491 L91.6671103,44.1716491 L90.9422037,47.5485649 L86.7788023,47.5485649 L89.6931833,33.9844272 L100.108743,33.9844272 C100.904216,33.9844272 101.587424,34.021649 102.156444,34.0960926 L102.155803,34.0960926 Z M109.680718,47.6884676 C109.167509,47.6692149 108.699207,47.6294261 108.277735,47.5665341 C107.855621,47.5049256 107.478413,47.4086623 107.145469,47.2777442 C106.813167,47.1474679 106.526412,46.9761193 106.285845,46.7643401 C105.813694,46.3536168 105.541694,45.8254522 105.469203,45.1792048 C105.396712,44.5323155 105.465995,43.7172864 105.677052,42.7341175 L106.471242,39.0408164 C106.698336,37.9832038 106.990865,37.112342 107.350111,36.4288728 C107.708074,35.74412 108.212942,35.1902852 108.864075,34.7680103 C109.512,34.357287 110.274115,34.0960926 111.151059,33.985069 C112.027362,33.8721201 113.08842,33.8162874 114.33295,33.8162874 L119.203937,33.8162874 C120.448467,33.8162874 121.490921,33.8721201 122.331941,33.9844272 C123.172319,34.0960926 123.822811,34.3566452 124.282132,34.7673686 C124.718359,35.1652568 124.97817,35.6979136 125.058359,36.3634137 C125.140473,37.0289139 125.072473,37.8651209 124.855642,38.8726765 L124.042207,42.6603156 C123.826018,43.6678713 123.534131,44.5040783 123.167187,45.1695784 C122.800243,45.8350786 122.312695,46.3670936 121.704544,46.7649818 C121.053411,47.1885403 120.28424,47.4529434 119.397031,47.5581912 C118.509181,47.6640809 117.449406,47.7167048 116.217707,47.7167048 L111.364682,47.7167048 C110.755247,47.7167048 110.193926,47.7077202 109.682001,47.6891093 L109.680718,47.6884676 Z M117.54435,44.2274818 C118.019068,44.1652316 118.421936,44.0413728 118.754238,43.8539803 C119.087824,43.6678713 119.355333,43.4034682 119.559334,43.0614126 C119.764617,42.7193571 119.924994,42.2746208 120.043032,41.7265618 L120.455523,39.8057886 C120.573561,39.2583714 120.603071,38.813635 120.546618,38.4709378 C120.488882,38.129524 120.333636,37.8651209 120.081523,37.6783701 C119.828768,37.4922611 119.478503,37.3677606 119.032012,37.3061521 C118.58488,37.2432601 118.031256,37.2118141 117.371784,37.2118141 L114.721063,37.2118141 C114.049402,37.2118141 113.476534,37.2439018 113.001816,37.3055103 C112.529023,37.3684024 112.124872,37.4954699 111.791286,37.6886382 C111.457701,37.8811647 111.190833,38.1519854 110.991323,38.4998168 C110.792455,38.8489316 110.630794,39.3084283 110.508266,39.8815157 L110.104114,41.7657089 C109.988642,42.300291 109.962982,42.7347592 110.027133,43.071039 C110.092567,43.4073187 110.251662,43.6678713 110.503775,43.8539803 C110.755889,44.0413728 111.105512,44.1658733 111.552644,44.2281236 C112.000419,44.2903738 112.5534,44.3211781 113.214156,44.3211781 L115.844348,44.3211781 C116.505103,44.3211781 117.071557,44.2903738 117.54435,44.2281236 L117.54435,44.2274818 Z M127.93425,33.985069 L132.078406,33.985069 L129.161459,47.5479232 L125.017303,47.5479232 L127.932325,33.9837855 L127.93425,33.985069 Z M137.755771,37.6783701 L135.634297,47.5485649 L131.490141,47.5485649 L134.40388,33.9844272 L140.545058,33.9844272 L146.491858,43.9290657 L148.628087,33.9844272 L152.752997,33.9844272 L149.838616,47.5485649 L143.771854,47.5485649 L137.754488,37.6783701 L137.755771,37.6783701 Z M23.9345356,44.1915435 C23.961479,44.0888627 23.9871394,43.9823313 24.0102338,43.873233 C24.2187246,42.9041826 24.1834415,42.1571796 23.9031016,41.6347909 C23.6240446,41.1124021 23.0691383,40.78254 22.2403071,40.6464879 C22.9812514,40.3846517 23.5618181,40.0239853 23.9852149,39.5638469 C24.4073286,39.1017831 24.6972912,38.5049508 24.8551028,37.7720664 C25.3978204,35.2467597 24.1635547,33.9844272 21.1516642,33.9844272 L8.92576221,33.9844272 L6.01073972,47.5492067 L18.9936238,47.5492067 L18.9936238,47.4497346 C18.9936238,45.4859637 20.573022,43.8956944 22.52193,43.8956944 C23.0242326,43.8956944 23.5021577,44.0009422 23.9345356,44.1909018 L23.9345356,44.1915435 Z M159.468327,37.3055103 L153.793527,37.3055103 L154.507528,33.985069 L170,33.985069 L169.286641,37.3061521 L163.611841,37.3061521 L161.411461,47.5498484 L157.267305,47.5498484 L159.467685,37.3074356 L159.468327,37.3055103 Z M2.75828285,53.1157912 C2.75828285,53.1157912 -1.64247733,44.132502 0.673374605,36.5585073 C2.98794352,28.9864378 11.6560298,24 11.6560298,24 C11.6560298,24 21.6379289,24.6847528 27.0426526,30.4785186 C32.4473763,36.2722845 32.4351876,46.2721139 32.4351876,46.2721139 C32.4351876,46.2721139 26.8553317,54.5700085 19.1366806,56.3502373 C11.4161049,58.1304662 2.75828285,53.1157912 2.75828285,53.1157912 Z M11.5200296,54.5392042 C18.7755103,56.7577519 26.4518217,52.6781142 28.6675981,45.4262805 C30.8840159,38.1757304 26.7995203,30.4990548 19.5453226,28.2798654 C12.2911249,26.0613177 4.61353044,30.1409554 2.3977541,37.392789 C0.181336258,44.6433392 4.2658319,52.3200148 11.5200296,54.5392042 L11.5200296,54.5392042 Z M19.8763419,43.2212097 C19.9533231,42.8605433 19.9129079,42.5711117 19.7544549,42.3535567 C19.5960019,42.1353599 19.3426053,42.0262615 18.9942653,42.0262615 L11.3416897,42.0262615 L10.8156514,44.4713488 L18.4688684,44.4713488 C19.227775,44.4713488 19.6973605,44.0542079 19.8763419,43.2212097 L19.8763419,43.2212097 Z M20.5178521,38.1462096 C20.5909842,37.8099299 20.5524936,37.5391092 20.4036633,37.3337476 C20.2548329,37.1283859 20.0187571,37.0257051 19.6947945,37.0257051 L12.4162194,37.0257051 L11.9350867,39.2654307 L19.2149448,39.2654307 C19.9238136,39.2654307 20.3587575,38.8919292 20.5191351,38.1455679 L20.5178521,38.1462096 Z M22.52193,49.6515967 C23.7292523,49.6515967 24.7081969,48.6658607 24.7081969,47.4503764 C24.7081969,46.2336085 23.7292523,45.2478726 22.52193,45.2478726 C21.3146078,45.2478726 20.3356632,46.2336085 20.3356632,47.4490929 C20.3356632,48.6658607 21.3146078,49.6515967 22.52193,49.6515967 L22.52193,49.6515967 Z" id="Bigpoint"></path>
        </g>
    </g>
</svg>