<?xml version="1.0" encoding="utf-8"?>
<!-- Generator: Adobe Illustrator 17.1.0, SVG Export Plug-In . SVG Version: 6.00 Build 0)  -->
<!DOCTYPE svg PUBLIC "-//W3C//DTD SVG 1.1//EN" "http://www.w3.org/Graphics/SVG/1.1/DTD/svg11.dtd">
<svg version="1.1" id="Layer_1" xmlns="http://www.w3.org/2000/svg" xmlns:xlink="http://www.w3.org/1999/xlink" x="0px" y="0px"
	 viewBox="0 0 88 44" enable-background="new 0 0 88 44" xml:space="preserve">
<path fill="#1D1D1B" d="M73.35,10.64c-0.37-0.2-0.81-0.35-1.23-0.37c-1.3-0.05-2.6,0.01-3.9-0.03c-0.98-0.03-1.73,0.3-2.24,1.19
	c-0.07-0.09-0.12-0.15-0.17-0.22c-0.43-0.63-1.02-0.96-1.79-0.96c-1.08,0-2.16,0-3.24,0c-7.54,0-15.07,0.01-22.61-0.01
	c-0.87,0-1.67,0.2-2.44,0.6c-1.44,0.75-2.89,1.47-4.33,2.2c-0.1,0.05-0.2,0.09-0.38,0.17c0.43-0.92,0.82-1.76,1.21-2.61
	c0.23-0.5,0.47-1,0.7-1.5c0.62-1.34,0.05-2.64-1.36-3.09C31.54,6,31.5,5.97,31.45,5.94c-1.65,0-3.29,0-4.94,0
	c-0.93,0.22-1.45,0.85-1.84,1.7c-3.54,7.63-7.1,15.25-10.65,22.88c-0.13,0.29-0.22,0.6-0.32,0.9c0,0.15,0,0.31,0,0.46
	c0.06,0.18,0.11,0.37,0.19,0.54c0.38,0.84,1.02,1.31,1.95,1.32c1.42,0.01,2.83,0.01,4.25,0c0.92,0,1.57-0.44,1.96-1.26
	c0.78-1.65,1.55-3.3,2.32-4.96c0.04-0.09,0.09-0.18,0.16-0.32c0.61,0.85,1.18,1.66,1.76,2.47c0.66,0.92,1.3,1.86,2.01,2.73
	c0.8,0.97,1.89,1.39,3.14,1.39c6.29,0,12.58-0.03,18.88,0.01c2.42,0.02,4.53-0.64,6.33-2.32c-0.22,0.48-0.44,0.96-0.66,1.43
	c-0.3,0.65-0.61,1.3-0.91,1.96c-0.63,1.35-0.06,2.65,1.35,3.1c0.05,0.01,0.09,0.05,0.13,0.07c1.67,0,3.35,0,5.02,0
	c0.92-0.25,1.41-0.91,1.8-1.75c2.31-5,4.64-9.99,6.98-14.97c0.52-1.09,0.46-2.05-0.46-2.95c0.17-0.01,0.29-0.02,0.41-0.02
	c0.9-0.02,1.59-0.41,1.98-1.23c0.63-1.3,1.24-2.62,1.84-3.94c0.09-0.19,0.12-0.41,0.18-0.62c0-0.15,0-0.31,0-0.46
	C74.13,11.53,73.92,10.94,73.35,10.64z M52.17,32.53c-0.45,0.08-0.92,0.11-1.38,0.11c-6.41,0.01-12.81,0-19.22,0.01
	c-1.18,0-2.08-0.46-2.76-1.41c-1.41-1.98-2.82-3.96-4.23-5.94c-0.08-0.11-0.17-0.23-0.28-0.38c-0.38,0.82-0.75,1.61-1.12,2.39
	c-0.72,1.54-1.44,3.07-2.15,4.61c-0.21,0.46-0.55,0.67-1.06,0.67c-1.27-0.01-2.55-0.03-3.82,0.01c-0.64,0.02-1.06-0.21-1.29-0.8
	c0-0.1,0-0.21,0-0.31c0.06-0.14,0.12-0.28,0.18-0.42c3.6-7.72,7.2-15.44,10.79-23.16c0.17-0.37,0.4-0.64,0.77-0.82
	c1.57,0,3.14,0,4.71,0c0.79,0.44,0.91,0.85,0.53,1.68c-1.05,2.23-2.09,4.47-3.13,6.7c-0.03,0.07-0.05,0.14-0.11,0.29
	c0.96-0.48,1.85-0.93,2.74-1.38c1.73-0.88,3.45-1.77,5.2-2.62c0.44-0.21,0.96-0.34,1.44-0.34c8.65-0.02,17.29-0.02,25.94-0.01
	c0.92,0,1.34,0.67,0.94,1.51c-0.52,1.13-1.07,2.25-1.57,3.39c-0.28,0.63-0.71,0.9-1.41,0.9c-6.99-0.02-13.97,0.01-20.96-0.02
	c-1.6-0.01-3.06,0.35-4.47,1.09c-2.2,1.15-4.42,2.25-6.64,3.37c-0.16,0.08-0.32,0.17-0.51,0.27c0.6,0.84,1.18,1.67,1.77,2.49
	c0.27,0.38,0.54,0.75,0.81,1.13c0.61,0.88,1.48,1.3,2.53,1.3c5.49,0.01,10.99,0,16.48,0c0.62,0,1.04-0.39,1.04-0.94
	c0.01-0.58-0.42-0.97-1.05-0.98c-2.05,0-4.09,0.03-6.14-0.01c-2.94-0.06-5.05-1.45-6.3-4.12c-0.05-0.1-0.09-0.21-0.12-0.33
	c-0.22-0.78,0.19-1.34,0.99-1.34c1.56-0.01,3.11,0,4.67,0c2.33,0,4.66,0,6.99,0c3.47,0,6.41,2.67,6.73,6.1
	C58.03,28.73,55.63,31.91,52.17,32.53z M53.69,18.36c0.13,0,0.26,0,0.39,0c2.59,0,5.17,0,7.76,0c1.15,0,1.62-0.24,2.33-1.2
	c0.21,0.26,0.4,0.5,0.63,0.8c-0.18,0-0.31,0-0.44,0c-0.91,0.01-1.58,0.43-1.97,1.25c-1.1,2.32-2.18,4.65-3.27,6.98
	c-0.06,0.13-0.12,0.25-0.23,0.49C58.97,22.69,57.24,19.98,53.69,18.36z M37.16,20.53c0.19,0.64,0.47,1.28,0.82,1.85
	c0.87,1.43,2.11,2.44,3.65,3.09c0.12,0.05,0.24,0.11,0.37,0.16c-0.01,0.02-0.01,0.04-0.02,0.06c-0.34,0-0.68,0-1.03,0
	c-2.12,0-4.24-0.01-6.37,0c-0.81,0.01-1.43-0.27-1.89-0.97c-0.53-0.8-1.11-1.57-1.69-2.39c2.08-1.05,4.13-2.09,6.13-3.1
	C37.13,19.66,37.04,20.13,37.16,20.53z M69.37,20.65c-2.4,5.15-4.8,10.29-7.19,15.44c-0.17,0.37-0.39,0.66-0.77,0.81
	c-1.57,0-3.14,0-4.71,0c-0.76-0.41-0.9-0.84-0.55-1.61c2.4-5.15,4.81-10.29,7.2-15.44c0.23-0.5,0.58-0.74,1.14-0.73
	c1.3,0.02,2.6,0,3.9,0.01C69.35,19.13,69.78,19.79,69.37,20.65z M73.14,12.58c-0.62,1.31-1.24,2.62-1.84,3.93
	c-0.23,0.49-0.59,0.7-1.12,0.7c-1.3-0.01-2.6,0-3.89,0c-0.94,0-1.38-0.68-0.99-1.53c0.56-1.21,1.13-2.42,1.69-3.63
	c0.2-0.42,0.52-0.64,1.01-0.63c1.29,0.01,2.57,0.03,3.86-0.01c0.63-0.02,1.06,0.19,1.29,0.79C73.14,12.32,73.14,12.45,73.14,12.58z"
	/>
<g>
</g>
<g>
</g>
<g>
</g>
<g>
</g>
<g>
</g>
<g>
</g>
</svg>
