<svg width="80px" height="10px" viewBox="0 0 80 10" version="1.1" xmlns="http://www.w3.org/2000/svg" xmlns:xlink="http://www.w3.org/1999/xlink">
    <g id="Page-1" stroke="none" stroke-width="1" fill="none" fill-rule="evenodd">
        <g id="Desktop-HD" transform="translate(-275.000000, -1205.000000)" fill="url(#brand-gradient)">
            <g id="My-work" transform="translate(185.000000, 785.000000)">
                <g id="Intro" transform="translate(90.000000, 153.000000)">
                    <g id="CSS-Winner" transform="translate(0.000000, 265.000000)">
                        <path d="M4.81541818,2 C4.08149201,2 3.40979535,2.13472289 2.81888789,2.39878529 C2.22811689,2.66284768 1.71690688,3.03181724 1.29972348,3.4957554 C0.883631829,3.95969356 0.559246832,4.51321692 0.33653067,5.14183173 C0.113678041,5.76920422 0,6.45524191 0,7.18213817 C0,7.87369729 0.106991097,8.52136103 0.316606308,9.10663262 C0.526357987,9.69328456 0.829999812,10.2071917 1.21879782,10.6334461 C1.60650408,11.0599765 2.08264175,11.3980261 2.63315462,11.6387604 C3.18243927,11.8783905 3.80173212,12 4.47452053,12 C5.41273965,12 6.2602074,11.8231762 6.99413357,11.47505 L7.04217039,11.45186 L7.04217039,10.3922976 L6.91771136,10.4621437 C6.24710645,10.837739 5.45859298,11.0278142 4.57277766,11.0278142 C3.99838285,11.0278142 3.48717284,10.9240113 3.05579674,10.7186141 C2.6233289,10.5118366 2.25636582,10.2303817 1.96691669,9.87908068 C1.67637581,9.52639934 1.45256791,9.10911726 1.303954,8.63841535 C1.15438481,8.16440058 1.07905434,7.65297812 1.07905434,7.11712333 C1.07905434,6.51942853 1.16311878,5.96052178 1.3301559,5.45682932 C1.49623774,4.9552074 1.73969707,4.51445924 2.05425636,4.14659397 C2.3677239,3.77983298 2.75979714,3.49037201 3.2175116,3.28387052 C3.67618135,3.077231 4.20908981,2.97342812 4.80218076,2.97342812 C5.55029963,2.97342812 6.26239089,3.14238388 6.9209866,3.474912 L7.04217039,3.53564773 L7.04217039,2.39823314 L6.98881131,2.3768376 C6.35314227,2.12699289 5.62139958,2 4.81541818,2 Z M13.6641551,7.82524674 C13.4664126,7.60204293 13.2153111,7.38546484 12.9182197,7.18103389 C12.6244036,6.98005383 12.2760002,6.77010146 11.8817434,6.55697426 C11.5093216,6.35585617 11.1893036,6.17461523 10.9315151,6.01904893 C10.6793218,5.86665746 10.4728454,5.7108151 10.3189092,5.55731935 C10.1681118,5.40699841 10.0578455,5.24687694 9.99015723,5.07888743 C9.92246898,4.91103596 9.88848839,4.70660501 9.88848839,4.47139209 C9.88848839,4.22610256 9.93884517,4.00952447 10.038194,3.82621299 C10.1386347,3.64165919 10.2785146,3.48485058 10.4521022,3.36117054 C10.6291015,3.23403962 10.8387167,3.13686245 11.0746703,3.07170957 C11.3137627,3.00545241 11.5715511,2.97232383 11.8424406,2.97232383 C12.570908,2.97232383 13.2142193,3.13134102 13.7536782,3.44509628 L13.8793655,3.51797916 L13.8793655,2.34025813 L13.8268252,2.31817241 C13.3212104,2.10711574 12.6866331,2 11.9406977,2 C11.5147804,2 11.1085144,2.05963144 10.7328174,2.17668576 C10.3560286,2.29387811 10.0218179,2.46393816 9.74001095,2.68382911 C9.4571123,2.90468631 9.22893741,3.17537442 9.06176382,3.49023397 C8.8947267,3.80619781 8.80943405,4.16743737 8.80943405,4.56401408 C8.80943405,4.87776934 8.8543321,5.16170888 8.94276352,5.40796466 C9.03119493,5.65546276 9.17093841,5.88970943 9.35885517,6.10173235 C9.54349669,6.31168473 9.78477253,6.51915246 10.0753134,6.7193043 C10.362579,6.91586721 10.7120742,7.12802816 11.1139732,7.34916143 C11.473294,7.55138381 11.7900368,7.73469529 12.0554675,7.89481676 C12.315303,8.05300573 12.5326969,8.21298916 12.7030093,8.37090206 C12.8679994,8.52674443 12.9913667,8.69473394 13.0699724,8.87017738 C13.1476228,9.04700117 13.1869257,9.25709159 13.1869257,9.49561736 C13.1869257,9.99351232 13.0241191,10.3648285 12.6888166,10.6276486 C12.3513307,10.8926772 11.8304314,11.0274001 11.1412668,11.0274001 C10.9631758,11.0274001 10.773212,11.0111119 10.577653,10.9786735 C10.3822305,10.9467872 10.184488,10.8977845 9.99015723,10.8362206 C9.79678174,10.7731382 9.60463446,10.695148 9.41890119,10.60225 C9.23439614,10.5103182 9.06394731,10.4041687 8.91110289,10.2893229 L8.77668167,10.1864863 L8.77668167,11.4373663 L8.81612099,11.463317 C8.93948828,11.5410311 9.10106667,11.6146042 9.29662565,11.6804472 C9.48768118,11.745048 9.69306588,11.8024708 9.90500105,11.8488509 C10.115708,11.8952309 10.3276432,11.9322244 10.5350749,11.9554145 C10.7426431,11.9813652 10.9249646,11.9928221 11.075762,11.9928221 C11.5355235,11.9928221 11.9636244,11.9380219 12.3491472,11.830078 C12.7379452,11.722134 13.0776146,11.5582856 13.3605133,11.3461246 C13.6455954,11.1303748 13.8695398,10.8567879 14.0278429,10.5297812 C14.1861461,10.2042929 14.26598,9.82151977 14.26598,9.39526537 C14.26598,9.08578922 14.2157597,8.79991718 14.1151826,8.54579336 C14.0158337,8.29235972 13.864081,8.05052108 13.6641551,7.82524674 Z M21.2788097,8.54662157 C21.1794608,8.29235972 21.0275717,8.05052108 20.8277822,7.8251087 C20.6300397,7.60190489 20.3789382,7.38505073 20.0818468,7.18089585 C19.7880307,6.98005383 19.4396273,6.76996342 19.0453706,6.55683622 C18.6729488,6.35571813 18.3529307,6.17447719 18.0951422,6.0189109 C17.8428125,5.86651943 17.6364725,5.71067707 17.4823999,5.55718131 C17.3317389,5.40686038 17.2214726,5.24673891 17.1537843,5.0787494 C17.0859596,4.91089792 17.0521155,4.70646697 17.0521155,4.47125405 C17.0521155,4.22596452 17.1023358,4.00952447 17.2018212,3.82607495 C17.3022618,3.64152115 17.4420053,3.48471254 17.6157293,3.36103251 C17.7925922,3.23390158 18.0023438,3.13672441 18.2382974,3.07157154 C18.4773898,3.00531438 18.7351783,2.9721858 19.0060677,2.9721858 C19.7345352,2.9721858 20.37771,3.13120298 20.9173054,3.44495824 L21.0428561,3.51784112 L21.0428561,2.34025813 L20.9904523,2.31817241 C20.4848375,2.10711574 19.8502602,2 19.1043248,2 C18.6784075,2 18.2721415,2.05963144 17.8964445,2.17668576 C17.5196557,2.29387811 17.185445,2.46393816 16.9036381,2.68382911 C16.6207394,2.90468631 16.3924281,3.17537442 16.2253909,3.49023397 C16.0582173,3.80619781 15.9730612,4.16743737 15.9730612,4.56401408 C15.9730612,4.87776934 16.0178228,5.16170888 16.1063906,5.40796466 C16.1948221,5.65546276 16.3345655,5.88970943 16.5224823,6.10173235 C16.7069873,6.31168473 16.9483997,6.51915246 17.2389405,6.7193043 C17.5262062,6.91614328 17.8757013,7.12802816 18.2776003,7.34916143 C18.6369211,7.55138381 18.9536639,7.73469529 19.2189582,7.89481676 C19.4789302,8.05300573 19.6963241,8.21298916 19.8666364,8.37117814 C20.0316265,8.52674443 20.1549938,8.69473394 20.2335995,8.87017738 C20.3111135,9.04700117 20.3504163,9.25709159 20.3504163,9.49561736 C20.3504163,9.99351232 20.1877462,10.3648285 19.8524437,10.6276486 C19.5149578,10.8926772 18.9940585,11.0274001 18.3048939,11.0274001 C18.1268029,11.0274001 17.9368391,11.0111119 17.7412801,10.9786735 C17.5458576,10.9467872 17.3481151,10.8977845 17.1537843,10.8362206 C16.9604089,10.7731382 16.7681251,10.695148 16.5825283,10.60225 C16.3978868,10.5103182 16.2275744,10.4041687 16.07473,10.2893229 L15.9403088,10.1867624 L15.9403088,11.4373663 L15.9796116,11.463317 C16.1031154,11.5410311 16.2646938,11.6146042 16.4602528,11.6804472 C16.6513083,11.745048 16.856693,11.8024708 17.0684917,11.8488509 C17.2793351,11.8952309 17.4911338,11.9322244 17.698702,11.9554145 C17.9062702,11.9813652 18.0885918,11.9928221 18.2393892,11.9928221 C18.6991507,11.9928221 19.1272515,11.9380219 19.5127743,11.830078 C19.9015723,11.722134 20.2412417,11.5582856 20.5241404,11.3461246 C20.8092225,11.1303748 21.0330304,10.8567879 21.1914701,10.5297812 C21.3497732,10.2042929 21.4294707,9.82179585 21.4294707,9.39526537 C21.4294707,9.08661743 21.3792503,8.80060736 21.2788097,8.54662157 Z M39.951622,2.16233004 L40.9913735,2.16233004 L40.9913735,11.8373939 L39.951622,11.8373939 L39.951622,2.16233004 Z M61.4027911,10.0793706 C61.3943301,10.0672234 55.3446932,2.16246808 55.3446932,2.16246808 L54.254039,2.16246808 L54.254039,11.8375319 L55.2935176,11.8375319 C55.2935176,11.8375319 55.2906518,3.99861964 55.2847836,3.85602871 C55.2876495,3.86044586 61.4116616,11.8375319 61.4116616,11.8375319 L62.4437708,11.8375319 L62.4437708,2.16233004 L61.3976053,2.16233004 C61.3982877,2.16233004 61.3985606,10.0175305 61.4027911,10.0793706 Z M50.6802089,10.0793706 C50.6722937,10.0672234 44.6229297,2.16246808 44.6229297,2.16246808 L43.5321391,2.16246808 L43.5321391,11.8375319 L44.5714812,11.8375319 C44.5714812,11.8375319 44.5684789,3.99861964 44.5620649,3.85602871 C44.5650672,3.86044586 50.6896252,11.8375319 50.6896252,11.8375319 L51.7217344,11.8375319 L51.7217344,2.16233004 L50.6755689,2.16233004 C50.6755689,2.16233004 50.6758419,10.0175305 50.6802089,10.0793706 Z M66.0181469,7.42328663 L70.0189861,7.42328663 L70.0189861,6.45745048 L66.0181469,6.45745048 L66.0181469,3.14114156 L70.8401155,3.14114156 L70.8401155,2.16246808 L64.9783954,2.16246808 L64.9783954,11.8373939 L71.0495943,11.8373939 L71.0495943,10.8652081 L66.0181469,10.8652081 L66.0181469,7.42328663 Z M78.3531013,8.76858306 C78.2478843,8.57008765 78.1455331,8.38981296 78.0489136,8.2339706 C77.9518847,8.07730002 77.8511712,7.93581338 77.7505941,7.81420388 C77.6490617,7.69052385 77.5422071,7.58451239 77.4339878,7.49713576 C77.3742147,7.44854717 77.3095287,7.40548002 77.2418405,7.36696804 C77.5072712,7.29173856 77.7507305,7.19097246 77.9703079,7.06494582 C78.2421526,6.90799917 78.4759227,6.71474912 78.6672512,6.48933674 C78.8591255,6.26392436 79.0089677,6.00220857 79.1115918,5.71053903 C79.2153076,5.41997377 79.2679844,5.09738422 79.2679844,4.75381324 C79.2679844,4.3274208 79.1858305,3.94630409 79.0264356,3.62261026 C78.865676,3.29891642 78.6506021,3.02615777 78.3840796,2.81178825 C78.1196042,2.59852302 77.8139153,2.43508869 77.4754741,2.32686866 C77.1390799,2.21851059 76.7850813,2.16329629 76.4258969,2.16329629 L73.1035777,2.16329629 L73.1035777,11.8382221 L74.1431927,11.8382221 L74.1431927,7.70142867 L75.6253742,7.70142867 C75.813291,7.70142867 75.9846951,7.72351439 76.1363113,7.76768583 C76.2850617,7.81089102 76.4268522,7.88363586 76.5569064,7.98426392 C76.6902359,8.08723859 76.8211089,8.22844917 76.9463867,8.40126993 C77.074394,8.57919801 77.2084058,8.80240182 77.3470575,9.06743046 L78.7619602,11.7910139 L78.7866609,11.8358755 L80,11.8358755 L78.3531013,8.76858306 Z M74.143875,3.14127959 L76.2222863,3.14127959 C76.8620494,3.14127959 77.3559279,3.29367106 77.6901386,3.59307061 C78.0212106,3.89136586 78.1890665,4.30781973 78.1890665,4.83263165 C78.1890665,5.12416316 78.1400744,5.38932984 78.0416808,5.62136793 C77.9446519,5.85216371 77.8057272,6.05217751 77.6294103,6.21450756 C77.4535027,6.37932224 77.237337,6.50631514 76.9870543,6.59562427 C76.734861,6.68424322 76.4529176,6.72951895 76.1495487,6.72951895 L74.1431927,6.72951895 L74.143875,3.14127959 Z M22.9351247,2.16246808 L29.3619598,11.8357375 L29.9199784,11.0075229 L24.0502067,2.16246808 L22.9351247,2.16246808 Z M37.1448798,2.16246808 L31.8384489,10.1730968 L28.0017809,4.3312858 L26.8730521,4.3312858 L31.8511404,11.8368417 L38.2621452,2.16246808 L37.1448798,2.16246808 Z M35.7642307,2.16246808 L34.6486028,2.16246808 L31.2807032,7.26109462 L31.8343549,8.0969011 L35.7642307,2.16246808 Z"></path>
                    </g>
                </g>
            </g>
        </g>
    </g>
</svg>