<svg width="170px" height="80px" viewBox="0 0 170 80" version="1.1" xmlns="http://www.w3.org/2000/svg" xmlns:xlink="http://www.w3.org/1999/xlink">
    <g id="Page-1" stroke="none" stroke-width="1" fill="none" fill-rule="evenodd">
        <g id="kickpush" fill="url(#brand-gradient)">
            <path d="M0,9 L170,9 L170,71 L0,71 L0,9 Z M107.270517,50.8170638 C105.048619,50.8170638 102.712811,50.192029 101.117411,48.5387001 C99.2657153,46.5566017 99.066036,44.7671602 99.066036,42.1596883 L99.066036,29.5235565 L103.851899,29.5235565 L103.851899,42.1600269 C103.851899,44.001611 104.763508,46.1028927 107.270517,46.0328049 C109.720912,46.1028927 110.461318,44.0791478 110.461318,42.1600269 L110.461318,29.5235565 L115.247181,29.5235565 L115.247181,42.1600269 C115.247181,44.59685 114.962409,46.7269118 113.196146,48.5390387 C111.543791,50.1635875 109.492755,50.8170638 107.270517,50.8170638 Z M144.668863,42.509789 L138.287261,42.509789 L138.287261,50.4838925 L133.501398,50.4838925 L133.501398,29.5235565 L138.287261,29.5235565 L138.287261,37.7251915 L144.668863,37.7251915 L144.668863,29.5235565 L149.455065,29.5235565 L149.455065,50.4838925 L144.668863,50.4838925 L144.668863,42.509789 Z M38.3214811,29.5235565 L43.1073438,29.5235565 L43.1073438,50.4838925 L38.3214811,50.4838925 L38.3214811,29.5235565 Z M85.8478744,34.0799452 L85.8478744,39.5478147 L88.5823625,39.5478147 C90.3994783,39.5478147 92.0009811,38.9200712 92.0009811,36.8140492 C92.0009811,34.5935843 90.199799,34.0799452 88.354545,34.0799452 L85.8478744,34.0799452 Z M88.810519,43.8766718 L85.8478744,43.8766718 L85.8478744,50.4838925 L81.0616727,50.4838925 L81.0616727,29.5235565 L88.354884,29.5235565 C90.4347358,29.5235565 93.026838,29.6082037 94.7361473,31.118648 C96.4169794,32.4404985 97.2434959,34.4517156 97.2434959,36.5865176 C97.2434959,38.5306942 96.502411,40.7968686 94.9643038,42.0540486 C93.1973621,43.6860463 91.2320971,43.9122236 88.810519,43.8766718 Z M25.3311371,41.3704379 L25.3311371,50.4838925 L20.5452743,50.4838925 L20.5452743,29.5235565 L25.3311371,29.5235565 L25.3311371,38.6366724 L31.2564263,29.5235565 L36.7264196,29.5235565 L30.1169998,40.0035552 L36.7264196,50.4838925 L31.2564263,50.4838925 L25.3311371,41.3704379 Z M68.0709896,41.367052 L68.0709896,50.4805066 L63.2851269,50.4805066 L63.2851269,29.5194934 L68.0709896,29.5194934 L68.0709896,38.632948 L73.9966178,29.5194934 L79.4662721,29.5194934 L72.8568523,39.9998307 L79.4662721,50.4805066 L73.9966178,50.4805066 L68.0709896,41.367052 Z M45.5092591,43.9816343 C45.5092591,48.3761776 49.294013,50.8170638 53.4859229,50.8170638 C57.6602041,50.8170638 61.106961,48.8617138 61.4622478,43.7544412 L56.8367388,43.7544412 C56.5807831,45.6776253 55.5576384,46.7164155 53.4855839,46.7164155 C50.2947828,46.7164155 50.2947828,44.2101817 50.2947828,44.2101817 L50.2947828,35.7901569 C50.2947828,35.7901569 50.2947828,33.2842616 53.4855839,33.2842616 C55.5572994,33.2842616 56.5807831,34.3227133 56.8367388,36.2462359 L61.4622478,36.2462359 C61.106961,31.1389634 57.6602041,29.1832748 53.4859229,29.1832748 C49.294013,29.1832748 45.5092591,31.6244996 45.5092591,36.0187043 L45.5092591,43.9816343 Z M125.975962,37.9754086 C125.727126,37.8558868 125.46439,37.7394123 125.186059,37.6158274 C123.727281,36.9684457 122.07357,36.2347239 122.07357,34.8840934 C122.07357,33.8930442 123.202148,33.1244477 124.173085,33.1244477 C125.656272,33.1244477 126.669585,34.5604026 126.78146,35.8294332 L131.67479,35.8294332 C131.497146,32.6185962 128.808425,29.1863221 124.190374,29.1863221 C122.477675,29.1863221 120.751754,29.6444327 119.455025,30.6578288 C118.049472,31.7565492 117.274825,33.2575131 117.274825,34.8840934 C117.274825,37.6256465 118.596302,39.5833666 121.202304,40.7024023 L121.668787,40.9021697 C124.206986,41.9873466 126.604833,43.0122547 126.604833,44.459383 C126.604833,45.7416186 125.801709,46.6365086 124.651434,46.6365086 C123.207572,46.6365086 122.319694,45.733831 122.051534,44.1749685 L117.126337,44.1749685 C117.311777,47.8286796 120.576823,50.8170638 124.395817,50.8170638 C128.708077,50.8170638 131.719879,48.1388268 131.719879,44.1214714 C131.719879,40.7288123 128.53518,39.2021156 125.975962,37.9754086 Z" id="Kickpush"></path>
        </g>
    </g>
</svg>