<?xml version="1.0" encoding="UTF-8" standalone="no"?>
<svg width="170px" height="80px" viewBox="0 0 170 80" version="1.1" xmlns="http://www.w3.org/2000/svg" xmlns:xlink="http://www.w3.org/1999/xlink">
    <!-- Generator: Sketch 3.7.2 (28276) - http://www.bohemiancoding.com/sketch -->
    <title>university-of-reading</title>
    <desc>Created with Sketch.</desc>
    <defs>
        <linearGradient x1="0%" y1="0%" x2="101.999998%" y2="100.999999%" id="linearGradient-1">
            <stop stop-color="#3023AE" offset="0%"></stop>
            <stop stop-color="#C96DD8" offset="100%"></stop>
        </linearGradient>
    </defs>
    <g id="Page-1" stroke="none" stroke-width="1" fill="none" fill-rule="evenodd">
        <g id="university-of-reading" fill="url(#linearGradient-1)">
            <path d="M39.2888889,43.6345679 L39.2049383,16.854321 C39.1209877,16.0148148 38.3654321,15.2592593 37.5259259,15.1753086 C37.4419753,15.1753086 33.4123457,14.7555556 19.7283951,14.7555556 L19.5604938,14.7555556 C7.21975309,14.7555556 2.68641975,15.0074074 1.76296296,15.1753086 C0.92345679,15.3432099 0.0839506173,16.0987654 0.0839506173,16.9382716 C0.0839506173,17.0222222 0,43.7185185 0,43.7185185 C0,57.0666667 19.6444444,65.1259259 19.6444444,65.0419753 C21.0716049,64.2864198 39.2888889,56.8148148 39.2888889,43.6345679 L39.2888889,43.6345679 Z M1.17530864,17.1061728 C1.25925926,16.6864198 1.51111111,16.4345679 1.9308642,16.3506173 C2.85432099,16.182716 7.21975309,15.9308642 19.4765432,15.9308642 L19.6444444,15.9308642 C33.1604938,15.9308642 37.1061728,16.3506173 37.1061728,16.3506173 C37.7777778,16.4345679 37.8617284,16.854321 37.8617284,17.1061728 L37.945679,36.7506173 C30.054321,36.2469136 2.77037037,36.6666667 1.00740741,36.7506173 C1.17530864,28.7753086 1.17530864,17.1061728 1.17530864,17.1061728 L1.17530864,17.1061728 Z M23.4222222,45.145679 C24.0938272,45.5654321 25.5209877,45.3975309 25.5209877,45.4814815 C25.5209877,45.5654321 24.345679,46.237037 24.0098765,46.9925926 C23.8419753,46.7407407 23.6740741,46.4888889 23.4222222,46.4049383 C23.3382716,46.3209877 23.1703704,46.3209877 23.0864198,46.3209877 C23.1703704,46.237037 23.254321,46.1530864 23.254321,45.9851852 C23.3382716,45.817284 23.4222222,45.5654321 23.4222222,45.3975309 L23.4222222,45.145679 L23.4222222,45.145679 Z M20.5679012,43.0469136 C20.2320988,43.0469136 19.9802469,43.2148148 19.8123457,43.382716 C19.7283951,43.4666667 19.6444444,43.5506173 19.5604938,43.6345679 C19.4765432,43.5506173 19.3925926,43.4666667 19.308642,43.382716 C19.0567901,43.2148148 18.8049383,43.0469136 18.5530864,43.0469136 C19.2246914,42.5432099 19.4765432,41.1160494 19.5604938,41.1160494 C19.6444444,41.1160494 19.9802469,42.5432099 20.5679012,43.0469136 L20.5679012,43.0469136 Z M15.782716,45.9851852 C15.8666667,46.0691358 15.8666667,46.1530864 15.9506173,46.3209877 C15.782716,46.3209877 15.6987654,46.4049383 15.6148148,46.4049383 C15.362963,46.5728395 15.1950617,46.7407407 15.0271605,46.9925926 C14.7753086,46.237037 13.5160494,45.4814815 13.5160494,45.4814815 C13.5160494,45.3975309 14.9432099,45.5654321 15.6148148,45.145679 L15.6148148,45.4814815 C15.6987654,45.5654321 15.6987654,45.817284 15.782716,45.9851852 L15.782716,45.9851852 Z M3.10617284,44.8098765 C2.60246914,44.8098765 2.09876543,44.4740741 2.01481481,43.8864198 C1.9308642,44.3061728 1.59506173,44.6419753 1.09135802,44.7259259 L1.09135802,44.7259259 L1.09135802,44.5580247 L1.17530864,37.5901235 C1.17530864,37.5901235 9.82222222,37.4222222 15.2790123,37.3382716 L15.4469136,37.3382716 L15.362963,37.4222222 C15.1950617,37.6740741 14.9432099,37.8419753 14.6074074,38.0098765 C15.1111111,38.1777778 15.5308642,38.5975309 15.5308642,39.1012346 C15.5308642,39.6049383 15.1950617,40.0246914 14.691358,40.1925926 C15.1950617,40.3604938 15.5308642,40.7802469 15.5308642,41.2839506 C15.5308642,41.7876543 15.1950617,42.2074074 14.691358,42.3753086 C15.1950617,42.5432099 15.5308642,42.962963 15.5308642,43.4666667 C15.5308642,44.1382716 15.0271605,44.6419753 14.3555556,44.6419753 C13.8518519,44.6419753 13.4320988,44.3061728 13.2641975,43.8024691 C13.0962963,44.3061728 12.6765432,44.6419753 12.1728395,44.6419753 C11.6691358,44.6419753 11.2493827,44.3061728 11.0814815,43.8024691 C10.9135802,44.3061728 10.4938272,44.6419753 9.99012346,44.6419753 C9.48641975,44.6419753 9.06666667,44.3061728 8.89876543,43.8024691 C8.7308642,44.3061728 8.31111111,44.6419753 7.80740741,44.6419753 C7.3037037,44.6419753 6.88395062,44.3061728 6.71604938,43.8024691 C6.54814815,44.3061728 6.12839506,44.6419753 5.62469136,44.6419753 C5.12098765,44.6419753 4.70123457,44.3061728 4.53333333,43.8024691 C4.11358025,44.3901235 3.69382716,44.8098765 3.10617284,44.8098765 L3.10617284,44.8098765 Z M15.5308642,55.4716049 C15.5308642,55.9753086 15.1950617,56.3950617 14.691358,56.562963 C15.1950617,56.7308642 15.5308642,57.1506173 15.5308642,57.654321 C15.5308642,58.1580247 15.1950617,58.5777778 14.691358,58.745679 C15.1950617,58.9135802 15.5308642,59.3333333 15.5308642,59.837037 C15.5308642,60.3407407 15.1950617,60.7604938 14.7753086,60.9283951 C14.691358,60.9283951 14.691358,60.8444444 14.6074074,60.7604938 C13.3481481,59.9209877 10.5777778,58.0740741 9.31851852,57.0666667 C6.63209877,55.0518519 4.8691358,53.037037 4.8691358,53.037037 C4.78518519,52.8691358 4.61728395,52.7851852 4.53333333,52.617284 L4.44938272,52.5333333 C4.70123457,52.1975309 5.03703704,51.945679 5.45679012,51.945679 C5.96049383,51.945679 6.38024691,52.2814815 6.54814815,52.7851852 C6.71604938,52.2814815 7.13580247,51.945679 7.63950617,51.945679 C8.14320988,51.945679 8.56296296,52.2814815 8.7308642,52.7851852 C8.89876543,52.2814815 9.31851852,51.945679 9.82222222,51.945679 C10.3259259,51.945679 10.745679,52.2814815 10.9135802,52.7851852 C11.0814815,52.2814815 11.5012346,51.945679 12.0049383,51.945679 C12.508642,51.945679 12.9283951,52.2814815 13.0962963,52.7851852 C13.2641975,52.2814815 13.6839506,51.945679 14.1876543,51.945679 C14.8592593,51.945679 15.362963,52.4493827 15.362963,53.1209877 C15.362963,53.6246914 15.0271605,54.0444444 14.5234568,54.2123457 C15.1111111,54.4641975 15.5308642,54.8839506 15.5308642,55.4716049 L15.5308642,55.4716049 Z M15.8666667,52.5333333 C15.782716,52.4493827 16.3703704,51.1901235 16.2024691,50.4345679 C16.454321,50.6024691 16.7061728,50.6864198 17.0419753,50.6024691 C17.1259259,50.6024691 17.2938272,50.5185185 17.3777778,50.5185185 L17.3777778,50.6864198 L17.3777778,50.9382716 C17.4617284,51.2740741 17.6296296,51.5259259 17.7975309,51.6938272 C16.9580247,51.6098765 15.9506173,52.5333333 15.8666667,52.5333333 L15.8666667,52.5333333 Z M21.2395062,50.7703704 C20.8197531,52.1135802 17.7975309,51.6098765 17.7135802,50.6864198 C17.6296296,50.0987654 19.3925926,48.8395062 18.7209877,48.4197531 C18.0493827,47.9160494 17.2098765,50.0987654 16.7061728,50.0148148 C15.9506173,50.182716 14.5234568,47.4962963 15.6987654,46.6567901 C16.1185185,46.3209877 17.8814815,47.7481481 18.217284,46.9925926 C18.4691358,46.1530864 16.1185185,46.1530864 16.1185185,45.6493827 C15.6987654,44.8098765 17.6296296,42.7950617 18.9728395,43.6345679 C19.3925926,44.1382716 18.7209877,46.0691358 19.5604938,46.0691358 C20.4,46.0691358 19.6444444,44.054321 20.1481481,43.6345679 C20.7358025,43.0469136 23.4222222,44.1382716 23.0024691,45.6493827 C22.7506173,46.3209877 20.6518519,46.1530864 20.9037037,46.9925926 C21.1555556,47.8320988 23.0024691,46.3209877 23.5061728,46.7407407 C24.5135802,47.3283951 23.5061728,50.0987654 22.4987654,50.0987654 C22.162963,50.182716 21.6592593,49.2592593 21.491358,49.1753086 C21.3234568,49.0074074 20.7358025,48.2518519 20.4,48.5037037 C20.0641975,48.7555556 20.5679012,49.3432099 20.7358025,49.5950617 C20.7358025,49.762963 21.3234568,50.3506173 21.2395062,50.7703704 L21.2395062,50.7703704 Z M21.3234568,51.5259259 C21.491358,51.3580247 21.6592593,51.1061728 21.7432099,50.7703704 L21.7432099,50.5185185 L21.7432099,50.3506173 C21.8271605,50.4345679 21.9950617,50.4345679 22.0790123,50.4345679 C22.4148148,50.5185185 22.6666667,50.4345679 22.9185185,50.2666667 C22.7506173,51.0222222 23.3382716,52.3654321 23.254321,52.3654321 C23.1703704,52.5333333 22.162963,51.6098765 21.3234568,51.5259259 L21.3234568,51.5259259 Z M24.345679,61.0123457 C23.9259259,60.8444444 23.5901235,60.4246914 23.5901235,59.9209877 C23.5901235,59.417284 23.9259259,58.9975309 24.4296296,58.8296296 C23.9259259,58.6617284 23.5901235,58.2419753 23.5901235,57.7382716 C23.5901235,57.2345679 23.9259259,56.8148148 24.4296296,56.6469136 C23.9259259,56.4790123 23.5901235,56.0592593 23.5901235,55.5555556 C23.5901235,55.0518519 23.9259259,54.6320988 24.4296296,54.4641975 C23.9259259,54.2962963 23.5901235,53.8765432 23.5901235,53.3728395 C23.5901235,52.7012346 24.0938272,52.1975309 24.7654321,52.1975309 C25.2691358,52.1975309 25.6888889,52.5333333 25.8567901,53.037037 C26.0246914,52.5333333 26.4444444,52.1975309 26.9481481,52.1975309 C27.4518519,52.1975309 27.8716049,52.5333333 28.0395062,53.037037 C28.2074074,52.5333333 28.6271605,52.1975309 29.1308642,52.1975309 C29.6345679,52.1975309 30.054321,52.5333333 30.2222222,53.037037 C30.3901235,52.5333333 30.8098765,52.1975309 31.3135802,52.1975309 C31.817284,52.1975309 32.237037,52.5333333 32.4049383,53.037037 C32.5728395,52.5333333 32.9925926,52.1975309 33.4962963,52.1975309 C33.9160494,52.1975309 34.3358025,52.4493827 34.5037037,52.7851852 C33.1604938,54.8 28.6271605,58.1580247 24.345679,61.0123457 L24.345679,61.0123457 Z M38.0296296,44.7259259 C37.6098765,44.6419753 37.2740741,44.3061728 37.1061728,43.8864198 C36.9382716,44.3901235 36.5185185,44.8098765 36.0148148,44.8098765 C35.5111111,44.8098765 35.091358,44.4740741 34.9234568,43.9703704 C34.7555556,44.4740741 34.3358025,44.8098765 33.8320988,44.8098765 C33.3283951,44.8098765 32.908642,44.4740741 32.7407407,43.9703704 C32.5728395,44.4740741 32.1530864,44.8098765 31.6493827,44.8098765 C31.145679,44.8098765 30.7259259,44.4740741 30.5580247,43.9703704 C30.3901235,44.4740741 29.9703704,44.8098765 29.4666667,44.8098765 C28.962963,44.8098765 28.5432099,44.4740741 28.3753086,43.9703704 C28.2074074,44.4740741 27.7876543,44.8098765 27.2839506,44.8098765 C26.7802469,44.8098765 26.3604938,44.4740741 26.1925926,43.9703704 C26.0246914,44.4740741 25.6049383,44.8098765 25.1012346,44.8098765 C24.4296296,44.8098765 23.9259259,44.3061728 23.9259259,43.6345679 C23.9259259,43.1308642 24.2617284,42.7111111 24.7654321,42.5432099 C24.2617284,42.3753086 23.9259259,41.9555556 23.9259259,41.4518519 C23.9259259,40.9481481 24.2617284,40.5283951 24.7654321,40.3604938 C24.2617284,40.1925926 23.9259259,39.7728395 23.9259259,39.2691358 C23.9259259,38.7654321 24.2617284,38.345679 24.7654321,38.1777778 C24.4296296,38.0938272 24.1777778,37.9259259 24.0098765,37.5901235 L23.9259259,37.5061728 L24.0938272,37.5061728 C29.6345679,37.5901235 38.2814815,37.7580247 38.2814815,37.7580247 L38.0296296,44.7259259 Z M61.3679012,23.9901235 L61.3679012,15.4271605 L58.6814815,15.4271605 L58.6814815,25.1654321 C58.8493827,28.6074074 57.254321,29.1950617 55.4074074,29.1950617 C53.7283951,29.1950617 52.1333333,28.691358 52.217284,25.417284 L52.217284,15.5111111 L49.1111111,15.5111111 L49.1111111,24.3259259 C49.1111111,26.508642 49.2790123,28.0197531 49.9506173,29.0271605 C50.7901235,30.2864198 52.4691358,31.2938272 55.3234568,31.2938272 C58.4296296,31.2938272 60.0246914,30.0345679 60.6962963,28.6074074 C61.1160494,27.6839506 61.3679012,26.508642 61.3679012,23.9901235 Z M73.8765432,31.0419753 L73.8765432,24.2419753 C73.9604938,20.7160494 72.5333333,19.5407407 70.182716,19.5407407 C67.7481481,19.5407407 66.8246914,20.9679012 66.8246914,20.9679012 L66.8246914,19.7925926 L63.7185185,19.7925926 L63.7185185,31.0419753 L66.8246914,31.0419753 L66.8246914,21.891358 C66.8246914,21.891358 71.1061728,20.0444444 70.6864198,24.5777778 L70.6864198,31.0419753 L73.8765432,31.0419753 Z M79.6691358,16.5185185 C79.6691358,15.5950617 78.9975309,14.9234568 77.9061728,14.9234568 C76.8148148,14.9234568 76.0592593,15.5950617 76.0592593,16.6024691 C76.0592593,17.5259259 76.7308642,18.1975309 77.8222222,18.1975309 C78.9975309,18.1135802 79.6691358,17.5259259 79.6691358,16.5185185 Z M79.417284,31.0419753 L79.417284,19.7925926 L76.3111111,19.7925926 L76.3111111,31.0419753 L79.417284,31.0419753 Z M91.8419753,19.708642 L89.0716049,19.708642 L86.4691358,28.3555556 L83.9506173,19.708642 L80.5925926,19.708642 L84.5382716,30.9580247 L87.5604938,30.9580247 L91.8419753,19.708642 Z M102.419753,25.5851852 C102.419753,24.3259259 102.839506,19.5407407 97.6345679,19.5407407 C93.017284,19.5407407 92.2617284,23.3185185 92.2617284,25.417284 C92.2617284,29.9506173 95.0320988,31.2098765 98.1382716,31.2098765 C100.740741,31.2098765 102,30.5382716 102,30.5382716 L101.412346,28.8592593 C101.412346,28.8592593 100.57284,29.362963 98.9777778,29.362963 C95.1160494,29.362963 95.3679012,25.6691358 95.3679012,25.5851852 L102.419753,25.5851852 Z M99.3975309,23.9901235 L95.4518519,23.9901235 C95.4518519,23.8222222 95.2839506,21.0518519 97.4666667,20.9679012 C99.817284,20.9679012 99.3975309,23.9901235 99.3975309,23.9901235 Z M111.48642,19.8765432 C108.464198,18.7851852 107.288889,21.2197531 107.288889,21.2197531 L107.288889,19.708642 L104.266667,19.708642 L104.266667,30.9580247 L107.37284,30.9580247 L107.37284,22.1432099 C107.37284,22.1432099 109.135802,21.1358025 110.814815,22.3111111 L111.48642,19.8765432 Z M119.881481,27.6839506 C119.881481,26.1728395 119.125926,25.3333333 117.782716,24.5777778 L116.187654,23.7382716 C115.264198,23.3185185 114.760494,23.0666667 114.844444,22.3111111 C115.180247,20.1283951 119.041975,21.8074074 119.041975,21.8074074 L119.62963,20.0444444 C119.62963,20.0444444 112.493827,17.6098765 112.158025,22.6469136 C112.074074,24.2419753 112.91358,25.0814815 114.424691,25.837037 L116.103704,26.7604938 C116.859259,27.1802469 117.195062,27.3481481 117.195062,28.0197531 C117.195062,28.8592593 116.523457,29.2790123 115.348148,29.2790123 C113.501235,29.2790123 112.493827,28.691358 112.493827,28.691358 L111.906173,30.454321 C111.906173,30.454321 113.081481,31.1259259 115.683951,31.1259259 C117.866667,31.2098765 119.881481,30.2024691 119.881481,27.6839506 Z M125.254321,16.5185185 C125.254321,15.5950617 124.582716,14.9234568 123.491358,14.9234568 C122.4,14.9234568 121.644444,15.5950617 121.644444,16.6024691 C121.644444,17.5259259 122.316049,18.1975309 123.407407,18.1975309 C124.582716,18.1135802 125.254321,17.5259259 125.254321,16.5185185 Z M125.002469,31.0419753 L125.002469,19.7925926 L121.896296,19.7925926 L121.896296,31.0419753 L125.002469,31.0419753 Z M134.65679,30.6222222 L134.153086,28.9432099 C134.153086,28.9432099 133.565432,29.2790123 132.809877,29.2790123 C131.382716,29.2790123 131.214815,28.3555556 131.214815,27.2641975 L131.214815,21.4716049 L134.57284,21.4716049 L134.57284,19.7925926 L131.214815,19.7925926 L131.214815,17.1901235 L129.2,17.1901235 C129.2,17.1901235 129.032099,19.4567901 126.681481,20.1283951 L126.681481,21.5555556 L128.108642,21.5555556 C128.108642,21.5555556 128.024691,27.6839506 128.360494,29.4469136 C128.864198,30.8740741 129.955556,31.2938272 131.802469,31.2938272 C133.397531,31.1259259 134.404938,30.7901235 134.65679,30.6222222 Z M146.325926,19.708642 L143.555556,19.708642 L141.120988,28.4395062 L138.518519,19.708642 L135.160494,19.708642 L139.693827,31.545679 C139.693827,31.545679 139.190123,34.3160494 137.511111,34.1481481 C136.923457,34.0641975 136.251852,33.8962963 136.251852,33.8962963 L135.916049,35.7432099 C135.916049,35.7432099 136.587654,35.9950617 137.846914,35.9950617 C139.693827,35.9950617 140.785185,35.2395062 141.540741,33.0567901 L146.325926,19.708642 Z M161.437037,25.1654321 C161.437037,21.6395062 159.506173,19.4567901 155.980247,19.4567901 C151.866667,19.4567901 150.271605,22.3950617 150.271605,25.5012346 C150.271605,29.0271605 152.202469,31.2098765 155.728395,31.2098765 C159.925926,31.2938272 161.437037,28.3555556 161.437037,25.1654321 Z M158.246914,25.417284 C158.246914,28.1037037 157.659259,29.4469136 155.896296,29.4469136 C154.133333,29.4469136 153.461728,27.9358025 153.461728,25.3333333 C153.461728,22.6469136 154.049383,21.3037037 155.812346,21.3037037 C157.74321,21.3037037 158.246914,22.8148148 158.246914,25.417284 Z M170,14.3358025 C170,14.3358025 169.244444,14 167.733333,14 C165.634568,14 164.459259,14.8395062 163.955556,16.4345679 C163.703704,17.1901235 163.703704,19.7925926 163.703704,19.7925926 L162.276543,19.7925926 L162.276543,21.4716049 L163.703704,21.4716049 L163.703704,31.0419753 L166.725926,31.0419753 L166.725926,21.4716049 L169.076543,21.4716049 L169.076543,19.7925926 L166.725926,19.7925926 C166.725926,19.7925926 166.641975,16.9382716 166.977778,16.4345679 C167.817284,15.1753086 169.412346,16.0987654 169.412346,16.0987654 L170,14.3358025 Z M127.269136,36.7506173 C125.422222,36.7506173 124.246914,37.7580247 124.246914,39.3530864 C124.246914,40.8641975 125.338272,41.8716049 127.101235,41.8716049 C128.948148,41.8716049 130.123457,40.8641975 130.123457,39.2691358 C130.123457,37.7580247 129.032099,36.7506173 127.269136,36.7506173 Z M76.562963,44.1382716 C68.9234568,44.1382716 68.1679012,50.4345679 68.1679012,53.1209877 C68.1679012,60.3407407 73.1209877,61.8518519 77.2345679,61.8518519 C80.9283951,61.8518519 82.9432099,61.0962963 83.4469136,60.9283951 C83.362963,60.6765432 82.691358,58.745679 82.6074074,58.3259259 C82.1037037,58.5777778 80.8444444,58.9975309 78.9135802,58.9975309 C72.9530864,58.9975309 73.3728395,53.5407407 73.3728395,53.5407407 L84.1185185,53.5407407 L84.1185185,53.4567901 C84.0345679,51.6938272 84.7061728,44.1382716 76.562963,44.1382716 Z M79.0814815,51.2740741 L73.2049383,51.2740741 C73.2049383,51.2740741 72.7012346,46.3209877 76.1432099,46.3209877 C80.0049383,46.4049383 79.0814815,51.2740741 79.0814815,51.2740741 Z M65.5654321,44.3901235 C65.5654321,39.9407407 61.7876543,38.5975309 60.6123457,38.345679 C58.0938272,37.5901235 49.782716,38.0098765 49.1950617,38.0098765 L49.1950617,61.6 L54.1481481,61.6 L54.1481481,52.1135802 L55.5753086,52.1135802 C55.5753086,52.1135802 62.2074074,61.4320988 62.291358,61.6 L68.2518519,61.6 C67.7481481,61.0123457 60.4444444,51.3580247 60.4444444,51.3580247 C60.4444444,51.3580247 65.5654321,50.2666667 65.5654321,44.3901235 Z M55.6592593,49.8469136 L54.0641975,49.762963 L54.0641975,40.5283951 C54.0641975,40.5283951 60.3604938,39.1012346 60.3604938,45.0617284 C60.3604938,50.182716 56.8345679,49.8469136 55.6592593,49.8469136 Z M93.9407407,44.1382716 C90.4148148,44.1382716 88.1481481,44.8938272 87.5604938,45.0617284 C87.6444444,45.3975309 88.3160494,47.3283951 88.4839506,47.6641975 C88.9876543,47.4123457 90.4148148,46.908642 92.5135802,46.908642 C93.5209877,46.908642 94.9481481,47.0765432 95.5358025,48.3358025 C95.9555556,49.0074074 95.7876543,51.6098765 95.7876543,51.6098765 L93.2691358,51.5259259 C91.3382716,51.5259259 89.3234568,51.6098765 87.7283951,52.7012346 C86.4691358,53.6246914 85.7975309,54.9679012 85.7975309,56.8148148 C85.7975309,59.9209877 87.8123457,61.9358025 91.0864198,61.9358025 C94.7802469,61.9358025 95.7876543,59.5851852 95.7876543,59.5851852 L95.7876543,61.6 L100.488889,61.6 L100.488889,51.1901235 C100.488889,49.762963 100.488889,48.2518519 100.069136,47.2444444 C99.4814815,45.145679 97.382716,44.1382716 93.9407407,44.1382716 Z M95.8716049,58.9135802 C95.8716049,58.9135802 95.2,59.3333333 93.8567901,59.3333333 C92.7654321,59.3333333 90.9185185,58.9975309 90.9185185,56.562963 C90.9185185,56.1432099 91.0024691,55.0518519 91.6740741,54.3802469 C92.6814815,53.2049383 95.8716049,53.5407407 95.8716049,53.5407407 L95.8716049,58.9135802 Z M129.787654,44.4740741 L124.666667,44.4740741 L124.666667,61.6 L129.787654,61.6 L129.787654,44.4740741 Z M111.654321,44.2222222 C106.869136,44.2222222 103.679012,47.9160494 103.679012,53.3728395 C103.679012,58.745679 106.197531,61.8518519 110.562963,61.8518519 C114.508642,61.8518519 115.516049,59.2493827 115.516049,59.2493827 L115.516049,61.6 L120.469136,61.6 L120.469136,35.5753086 L115.348148,35.5753086 L115.348148,45.145679 C115.348148,45.145679 114.676543,44.2222222 111.654321,44.2222222 Z M115.516049,46.9925926 L115.516049,58.3259259 C115.516049,58.3259259 114.592593,58.8296296 113.249383,58.8296296 C110.562963,58.8296296 109.051852,56.7308642 109.051852,53.037037 C108.967901,44.7259259 115.516049,46.9925926 115.516049,46.9925926 Z M144.14321,44.1382716 C140.02963,44.1382716 138.77037,46.8246914 138.77037,46.8246914 L138.77037,44.5580247 L133.817284,44.5580247 L133.817284,61.6839506 L138.938272,61.6839506 L138.938272,47.8320988 L139.022222,47.7481481 C139.022222,47.7481481 144.982716,45.145679 144.562963,51.4419753 L144.562963,61.6 L149.683951,61.6 L149.683951,51.1901235 C149.683951,50.4345679 149.683951,49.0074074 149.432099,47.8320988 C149.264198,46.7407407 148.17284,44.1382716 144.14321,44.1382716 Z M159.758025,44.1382716 C154.720988,44.1382716 152.454321,46.9925926 152.454321,49.9308642 C152.454321,54.9679012 157.239506,55.1358025 157.239506,55.1358025 C157.239506,55.1358025 153.965432,56.0592593 153.965432,58.9975309 C153.965432,61.0962963 155.980247,61.6839506 155.980247,61.6839506 C155.980247,61.6839506 151.614815,61.6839506 151.614815,65.2098765 C151.614815,68.7358025 156.064198,69.3234568 158.750617,69.3234568 C160.849383,69.3234568 162.612346,69.0716049 164.123457,68.5679012 C168.488889,67.1407407 169.160494,64.1185185 169.160494,62.5234568 C169.160494,58.745679 166.222222,58.2419753 163.703704,58.2419753 L159.925926,58.3259259 C159.254321,58.3259259 157.911111,58.3259259 157.911111,56.8148148 C157.911111,55.891358 158.498765,55.4716049 158.498765,55.4716049 L160.177778,55.5555556 C164.62716,55.5555556 167.22963,53.5407407 167.22963,50.0987654 C167.22963,48 165.88642,46.9925926 165.88642,46.9925926 L169.412346,46.9925926 L169.412346,44.4740741 L162.612346,44.4740741 C162.108642,44.3901235 161.017284,44.1382716 159.758025,44.1382716 Z M161.185185,62.0197531 C162.780247,62.0197531 163.955556,62.0197531 164.54321,62.6074074 C164.795062,62.8592593 164.962963,63.2790123 164.962963,63.782716 C164.962963,65.1259259 164.123457,66.7209877 160.009877,66.7209877 C158.079012,66.7209877 155.812346,66.4691358 155.812346,64.2024691 C155.812346,62.6074074 157.155556,62.0197531 157.239506,62.0197531 L161.185185,62.0197531 Z M161.437037,53.1209877 C161.017284,53.3728395 160.51358,53.4567901 160.009877,53.4567901 C158.246914,53.4567901 157.323457,52.1975309 157.323457,49.8469136 C157.323457,48.6716049 157.491358,46.1530864 160.009877,46.1530864 C161.77284,46.1530864 162.696296,47.4123457 162.696296,49.762963 C162.696296,51.0222222 162.528395,52.4493827 161.437037,53.1209877 Z M19.5604938,46.3209877 C18.9728395,46.3209877 18.5530864,46.7407407 18.5530864,47.3283951 C18.5530864,47.9160494 18.9728395,48.3358025 19.5604938,48.3358025 C20.1481481,48.3358025 20.5679012,47.9160494 20.5679012,47.3283951 C20.5679012,46.8246914 20.0641975,46.3209877 19.5604938,46.3209877 Z M12.4246914,27.0123457 C12.1728395,26.7604938 9.57037037,24.5777778 8.31111111,22.1432099 C8.22716049,21.9753086 7.89135802,21.6395062 7.55555556,22.1432099 C7.13580247,22.8148148 5.87654321,24.9975309 3.77777778,26.6765432 C3.19012346,27.1802469 3.77777778,28.0197531 3.77777778,28.1037037 C3.94567901,27.9358025 5.62469136,26.2567901 5.70864198,26.4246914 C5.79259259,26.5925926 4.11358025,28.6074074 4.02962963,28.691358 C4.02962963,28.691358 4.28148148,29.362963 4.70123457,29.782716 C4.78518519,29.6148148 6.21234568,27.2641975 6.38024691,27.4320988 C6.54814815,27.6 5.12098765,30.2024691 5.12098765,30.2024691 C5.54074074,30.6222222 6.21234568,30.9580247 6.2962963,30.9580247 C6.38024691,30.7901235 7.13580247,27.8518519 7.3037037,27.9358025 C7.47160494,27.9358025 7.05185185,31.0419753 7.05185185,31.1259259 C7.05185185,31.1259259 7.80740741,31.2938272 7.89135802,31.3777778 C7.97530864,31.3777778 8.7308642,31.2098765 8.7308642,31.1259259 C8.7308642,30.9580247 8.31111111,27.9358025 8.47901235,27.9358025 C8.64691358,27.8518519 9.40246914,30.7901235 9.48641975,30.9580247 C10.0740741,30.7901235 10.5777778,30.2864198 10.6617284,30.2024691 C10.6617284,30.2024691 9.2345679,27.4320988 9.40246914,27.4320988 C9.57037037,27.3481481 10.9975309,29.6987654 11.0814815,29.8666667 C11.1654321,29.782716 11.5851852,29.1111111 11.7530864,28.7753086 C11.5851852,28.6074074 9.99012346,26.5925926 10.0740741,26.508642 C10.1580247,26.4246914 11.837037,28.1037037 12.0049383,28.1876543 C12.1728395,27.9358025 12.6765432,27.1802469 12.4246914,27.0123457 Z M6.54814815,22.8148148 L4.8691358,22.8148148 C4.61728395,22.8148148 4.70123457,23.0666667 4.70123457,23.0666667 C4.70123457,23.0666667 5.28888889,24.4938272 5.28888889,24.5777778 C5.28888889,24.4938272 6.54814815,22.8148148 6.54814815,22.8148148 Z M11.1654321,22.8148148 L9.48641975,22.8148148 C9.57037037,22.982716 10.745679,24.4938272 10.745679,24.5777778 C10.8296296,24.4098765 11.3333333,23.0666667 11.3333333,23.0666667 C11.3333333,23.0666667 11.5012346,22.8148148 11.1654321,22.8148148 Z M22.582716,22.7308642 L20.9037037,22.7308642 C20.9876543,22.8987654 22.162963,24.4098765 22.162963,24.4938272 C22.2469136,24.3259259 22.7506173,22.982716 22.7506173,22.982716 C22.7506173,22.982716 22.9185185,22.6469136 22.582716,22.7308642 Z M17.9654321,22.7308642 L16.2864198,22.7308642 C16.0345679,22.7308642 16.1185185,22.982716 16.1185185,22.982716 C16.1185185,22.982716 16.7061728,24.4098765 16.7061728,24.4938272 C16.7061728,24.4098765 17.9654321,22.7308642 17.9654321,22.7308642 Z M23.8419753,26.8444444 C23.5901235,26.5925926 20.9876543,24.4098765 19.7283951,21.9753086 C19.6444444,21.8074074 19.308642,21.4716049 18.9728395,21.9753086 C18.5530864,22.6469136 17.2938272,24.8296296 15.1950617,26.508642 C14.6074074,27.0123457 15.1950617,27.8518519 15.1950617,27.9358025 C15.362963,27.7679012 17.0419753,26.0888889 17.1259259,26.2567901 C17.2098765,26.4246914 15.5308642,28.4395062 15.4469136,28.5234568 C15.4469136,28.5234568 15.6987654,29.1950617 16.1185185,29.6148148 C16.2024691,29.4469136 17.6296296,27.0962963 17.7975309,27.2641975 C17.9654321,27.4320988 16.5382716,30.0345679 16.5382716,30.0345679 C16.9580247,30.454321 17.6296296,30.7901235 17.7135802,30.7901235 C17.7975309,30.6222222 18.5530864,27.6839506 18.7209877,27.7679012 C18.8888889,27.7679012 18.4691358,30.8740741 18.4691358,30.9580247 C18.4691358,30.9580247 19.2246914,31.1259259 19.308642,31.2098765 C19.3925926,31.2098765 20.1481481,31.0419753 20.1481481,30.9580247 C20.1481481,30.7901235 19.7283951,27.7679012 19.8962963,27.7679012 C20.0641975,27.6839506 20.8197531,30.6222222 20.9037037,30.7901235 C21.491358,30.6222222 21.9950617,30.1185185 22.0790123,30.0345679 C22.0790123,30.0345679 20.6518519,27.2641975 20.8197531,27.2641975 C20.9876543,27.1802469 22.4148148,29.5308642 22.4987654,29.6987654 C22.582716,29.6148148 23.0024691,28.9432099 23.1703704,28.6074074 C23.0024691,28.4395062 21.4074074,26.4246914 21.491358,26.3407407 C21.5753086,26.2567901 23.254321,27.9358025 23.4222222,28.0197531 C23.5901235,27.8518519 24.0938272,27.0962963 23.8419753,26.8444444 Z M33.9160494,22.8987654 L32.237037,22.8987654 C32.3209877,23.0666667 33.4962963,24.5777778 33.4962963,24.6617284 C33.5802469,24.4938272 34.0839506,23.1506173 34.0839506,23.1506173 C34.0839506,23.0666667 34.2518519,22.8148148 33.9160494,22.8987654 Z M35.1753086,27.0123457 C34.9234568,26.7604938 32.3209877,24.5777778 31.0617284,22.1432099 C30.9777778,21.9753086 30.6419753,21.6395062 30.3061728,22.1432099 C29.8864198,22.8148148 28.6271605,24.9975309 26.5283951,26.6765432 C25.9407407,27.1802469 26.5283951,28.0197531 26.5283951,28.1037037 C26.6962963,27.9358025 28.3753086,26.2567901 28.4592593,26.4246914 C28.5432099,26.5925926 26.8641975,28.6074074 26.7802469,28.691358 C26.7802469,28.691358 27.0320988,29.362963 27.4518519,29.782716 C27.5358025,29.6148148 28.962963,27.2641975 29.1308642,27.4320988 C29.2987654,27.6 27.8716049,30.2024691 27.8716049,30.2024691 C28.291358,30.6222222 28.962963,30.9580247 29.0469136,30.9580247 C29.1308642,30.7901235 29.8864198,27.8518519 30.054321,27.9358025 C30.2222222,27.9358025 29.8024691,31.0419753 29.8024691,31.1259259 C29.8024691,31.1259259 30.5580247,31.2938272 30.6419753,31.3777778 C30.7259259,31.3777778 31.4814815,31.2098765 31.4814815,31.1259259 C31.4814815,30.9580247 31.0617284,27.9358025 31.2296296,27.9358025 C31.3975309,27.8518519 32.1530864,30.7901235 32.237037,30.9580247 C32.8246914,30.7901235 33.3283951,30.2864198 33.4123457,30.2024691 C33.4123457,30.2024691 31.9851852,27.4320988 32.1530864,27.4320988 C32.3209877,27.3481481 33.7481481,29.6987654 33.8320988,29.8666667 C33.9160494,29.782716 34.3358025,29.1111111 34.5037037,28.7753086 C34.3358025,28.6074074 32.7407407,26.5925926 32.8246914,26.508642 C32.908642,26.4246914 34.5876543,28.1037037 34.7555556,28.1876543 C34.9234568,28.0197531 35.4271605,27.2641975 35.1753086,27.0123457 Z M29.2987654,22.8987654 L27.6197531,22.8987654 C27.3679012,22.8987654 27.4518519,23.1506173 27.4518519,23.1506173 C27.4518519,23.1506173 28.0395062,24.5777778 28.0395062,24.6617284 C28.0395062,24.5777778 29.2987654,22.8987654 29.2987654,22.8987654 Z" id="UoR"></path>
        </g>
    </g>
</svg>