<svg width="170px" height="80px" viewBox="0 0 170 80" version="1.1" xmlns="http://www.w3.org/2000/svg" xmlns:xlink="http://www.w3.org/1999/xlink">
    <g id="Page-1" stroke="none" stroke-width="1" fill="none" fill-rule="evenodd">
        <g id="vanity-fair" fill="url(#brand-gradient)">
            <path d="M15.8451668,23.7858147 L9.46959051,56.2169095 L7.25254542,56.2158617 L0.878016912,23.7858147 L0,23.7858147 L0,23 L8.17666346,23 L8.17666346,23.7858147 L5.95961837,23.7858147 L10.4408574,46.6991224 L14.9210487,23.7858147 L12.2880458,23.7858147 L12.2890935,23 L17.3235461,23 L17.3235461,23.7858147 L15.8451668,23.7858147 Z M12.8496413,55.4300471 L14.3280206,55.4300471 L20.7025491,23 L22.9195942,23 L29.2951705,55.4300471 L30.034884,55.4300471 L30.034884,56.2158617 L21.9965239,56.2158617 L21.9954762,55.4300471 L24.213569,55.4300471 L22.3653329,46.0526588 L17.099327,46.0526588 L15.2510909,55.4300471 L17.8840939,55.4300471 L17.8851416,56.2158617 L12.8485935,56.2158617 L12.8485935,55.4300471 L12.8496413,55.4300471 Z M17.2386781,45.2668442 L22.2270296,45.2678919 L19.73233,32.378436 L17.2386781,45.2668442 L17.2386781,45.2668442 Z M45.9261519,23.7858147 L45.9261519,56.308064 L44.3786209,56.308064 L33.4086483,25.3563962 L33.4086483,55.4300471 L35.5795922,55.4300471 L35.5795922,56.2158617 L31.3058082,56.2158617 L31.3058082,55.4300471 L32.4153785,55.4300471 L32.4153785,23.7858147 L30.3366368,23.7858147 L30.3366368,23 L37.7735868,23 L44.9328822,42.7029929 L44.9328822,23.7858147 L42.7608905,23.7858147 L42.7608905,23 L47.681138,23 L47.681138,23.7858147 L45.9261519,23.7858147 Z M49.423551,56.2158617 L49.4225033,55.4300471 L50.9008826,55.4300471 L50.9008826,23.7858147 L49.423551,23.7858147 L49.423551,23 L57.5530656,23 L57.5530656,23.7858147 L56.0296329,23.7858147 L56.0296329,55.4300471 L57.5530656,55.4300471 L57.5530656,56.2158617 L49.423551,56.2158617 Z M64.0669452,56.2158617 L64.0669452,55.4300471 L65.5914257,55.4300471 L65.5914257,23.6936124 L65.4992234,23.6936124 C63.3282795,23.6936124 61.2034366,25.9106575 60.786431,35.9816582 L60.0016641,35.9816582 L60.0016641,23 L76.354991,23 L76.354991,35.9816582 L75.5691763,35.9816582 C75.1081651,25.9117052 72.79787,23.6936124 70.8574316,23.6936124 L70.7180805,23.6936124 L70.7191283,55.4300471 L72.2886621,55.4300471 L72.2886621,56.2158617 L64.0669452,56.2158617 L64.0669452,56.2158617 Z M90.4399329,23.7858147 L90.4399329,23 L95.0123265,23 L95.0123265,23.7858147 L93.7655006,23.7858147 L89.4676183,40.832754 L89.468666,55.4310948 L90.9931465,55.4300471 L90.9931465,56.2158617 L82.816483,56.2169095 L82.816483,55.4310948 L84.3409634,55.4300471 L84.3409634,40.9239085 L79.5359687,23.7858147 L78.4735473,23.7858147 L78.4735473,23 L86.835663,23 L86.835663,23.7858147 L84.5264157,23.7858147 L88.9154525,39.3533269 L92.8413825,23.7858147 L90.4399329,23.7858147 Z M109.926041,56.2158617 L109.926041,55.4300471 L111.265069,55.4300471 L111.265069,23.7858147 L109.926041,23.7858147 L109.926041,23 L124.43218,23 L124.431132,32.9326973 L123.646365,32.9326973 C123.231455,25.9106575 121.105564,23.7858147 117.50339,23.7858147 L116.393819,23.7858147 L116.393819,38.6607623 L116.80873,38.6607623 C119.626137,38.6607623 120.457005,37.5061386 120.735707,32.9326973 L121.474373,32.9326973 L121.474373,45.4973498 L120.735707,45.4973498 C120.458053,40.5079506 119.626137,39.4465769 117.039235,39.4455292 L116.393819,39.4465769 L116.393819,55.4289993 L118.425412,55.4289993 L118.425412,56.2158617 L109.926041,56.2158617 Z M123.230407,55.4300471 L124.708786,55.4300471 L131.084363,23 L133.30036,23 L139.676984,55.4300471 L140.484801,55.4300471 L140.484801,56.2158617 L132.37729,56.2158617 L132.37729,55.4300471 L134.594335,55.4300471 L132.746099,46.0526588 L127.48114,46.0526588 L125.630809,55.4300471 L128.265907,55.4310948 L128.265907,56.2169095 L123.229359,56.2158617 L123.229359,55.4300471 L123.230407,55.4300471 Z M127.619444,45.2668442 L132.608843,45.2668442 L130.113096,32.378436 L127.619444,45.2668442 Z M141.516838,56.2158617 L141.516838,55.4300471 L142.856914,55.4300471 L142.856914,23.7858147 L141.516838,23.7858147 L141.516838,23 L149.370794,23 L149.370794,23.7858147 L147.985664,23.7858147 L147.985664,55.4300471 L149.369746,55.4300471 L149.369746,56.2158617 L141.516838,56.2158617 Z M163.069115,51.9661761 L163.068067,43.834566 C163.069115,39.4916303 161.821241,38.7529645 159.234339,38.7529645 L158.35737,38.7529645 L158.35737,55.4300471 L160.388963,55.4300471 L160.388963,56.2158617 L151.888544,56.2158617 L151.888544,55.4300471 L153.227572,55.4300471 L153.227572,23.7858147 L151.890639,23.7858147 L151.890639,23 L159.327589,23 C164.779047,23 168.28902,25.4946996 168.290067,31.1777112 C168.28902,36.1671104 165.287208,37.9220965 161.591783,38.3841555 L161.591783,38.4302566 C165.471612,39.030619 168.151764,40.6483495 168.151764,46.5157656 L168.151764,54.13712 C168.151764,55.1534403 168.47552,55.4300471 169.028733,55.4300471 C169.39859,55.4300471 169.767399,55.2917437 170,55.1984937 L170,55.9843084 C169.722345,56.1697606 168.843281,56.4914208 167.643604,56.4914208 C164.778,56.4924685 163.069115,55.4761482 163.069115,51.9661761 L163.069115,51.9661761 Z M158.35737,23.7858147 L158.356322,37.9681976 L159.049935,37.9681976 C161.544634,37.9681976 163.345721,38.1536499 163.344674,32.0546804 L163.345721,30.4379977 C163.345721,24.5234327 161.544634,23.7847669 159.326541,23.7847669 L158.35737,23.7847669 L158.35737,23.7858147 Z" id="Vanity-Fair"></path>
        </g>
    </g>
</svg>